<svg xmlns="http://www.w3.org/2000/svg" viewBox="0 0 330 330"><defs><style>.a{fill:#e52427;}</style></defs><title>o</title><path class="a" d="M117.32,165.14a17.43,17.43,0,1,0-17.43,17.43A17.44,17.44,0,0,0,117.32,165.14Z"/><path class="a" d="M182.75,165.14a17.42,17.42,0,1,0-17.42,17.43A17.44,17.44,0,0,0,182.75,165.14Z"/><path class="a" d="M248.18,165.14a17.43,17.43,0,1,0-17.43,17.43A17.44,17.44,0,0,0,248.18,165.14Z"/><path class="a" d="M165,0A165,165,0,1,0,330,165,165,165,0,0,0,165,0ZM272.87,289.27l-49.45-21.52a117.55,117.55,0,1,1,38.81-35.54Z"/></svg>