<svg xmlns="http://www.w3.org/2000/svg" viewBox="0 0 2155.35 487.79"><defs><style>.a{fill:#e52427;}.b{fill:#fff;}</style></defs><title>taolingo_dark_2</title><path class="a" d="M1942.67,165.14a17.43,17.43,0,1,0-17.43,17.43A17.44,17.44,0,0,0,1942.67,165.14Z"/><path class="a" d="M2008.1,165.14a17.42,17.42,0,1,0-17.42,17.43A17.44,17.44,0,0,0,2008.1,165.14Z"/><path class="a" d="M2073.53,165.14a17.43,17.43,0,1,0-17.43,17.43A17.44,17.44,0,0,0,2073.53,165.14Z"/><rect class="a" x="1704.29" y="145.07" width="136.61" height="45.29"/><path class="a" d="M1098.36,279.52v51.33h-191V4.53h54.94v275Z"/><path class="a" d="M1140.22,4.53h54.93V330.85h-54.93Z"/><path class="a" d="M1471.14,330.85Q1456.3,304,1438,273.16T1400.07,211q-19.62-31.32-39.9-60.75t-38.58-53V330.85h-54.07V4.53h44.91q17.43,19.77,37.5,46.85t40.33,56.27q20.27,29.21,39.24,58.62t33.79,54.86V4.53h54.5V330.85Z"/><path class="a" d="M683.35,0a165,165,0,1,0,165,165A165,165,0,0,0,683.35,0Zm-.5,283a117.5,117.5,0,1,1,117.5-117.5A117.5,117.5,0,0,1,682.85,283Z"/><path class="a" d="M1990.35,0a165,165,0,1,0,165,165A165,165,0,0,0,1990.35,0Zm107.87,289.27-49.45-21.52a117.55,117.55,0,1,1,38.81-35.54Z"/><path class="a" d="M241.11,6.06V57.38H148.24v275H92.87v-275H0V6.06Z"/><path class="a" d="M459.11,332.38q-6.12-19.31-12.68-38.14t-12.67-38.62H306.13Q300,275.4,293.67,294.47t-12.45,37.91H224.09q17-52.28,32.24-96.53T286.17,152q14.59-39.56,29-75.34T344.76,6.06h52.45q15.26,34.85,29.64,70.63t29,75.34q14.61,39.56,30.09,83.82t32.48,96.53ZM370,69.16q-10,25-22.89,60.74t-26.82,77.69h99.41q-13.95-41.9-27-78.16T370,69.16Z"/><path class="a" d="M1826.33,163.55c0,.65,0,1.3,0,1.95A117,117,0,0,1,1806,231.56c-9.7,12.71-22.16,24.62-38.1,35.53a117.62,117.62,0,0,1-117.92.13l-49.6,21.59,10-53.71.79-4.21A117.5,117.5,0,0,1,1784.5,75.6s2.79,2.84,2.89,3,31.55-36,31.55-36l-.82-.72,0,0h0A165,165,0,1,0,1873.35,165Z"/><path class="b" d="M958.07,486.06H905.29V383.13h50.63v13.69H920.05v30.3h33.29v13.62H920.05v31.63h38Z"/><path class="b" d="M1055.34,486.06h-16.49l-45.58-75.88a47.05,47.05,0,0,1-3.7-7.24h-.37a130.57,130.57,0,0,1,.56,15v68.11H975.42V383.13H992.9l44.23,74.42c2.09,3.55,3.49,6,4.18,7.38h.31a116.39,116.39,0,0,1-.67-14.75V383.13h14.39Z"/><path class="b" d="M1152.92,479.08q-14.28,8.71-32.92,8.71-21.35,0-34.14-14T1073.06,436q0-24,14.18-39.31t36.52-15.31q15.38,0,26.33,5.11v16.35q-11.27-7.51-27.26-7.51-15.07,0-24.67,11t-9.6,28.77q0,18.35,8.83,28.61T1121.3,474q10,0,16.79-4V444.2h-20.24V430.64h35.07Z"/><path class="b" d="M1225.76,486.06h-52V383.13h14.77v89.24h37.22Z"/><path class="b" d="M1254.43,396.16v89.9h-14.76V383.13h14.76Z"/><path class="b" d="M1273.94,464.73a37.75,37.75,0,0,0,25.77,9.63q19,0,19-14a13.24,13.24,0,0,0-2.09-7.3,20,20,0,0,0-5.63-5.69,153.5,153.5,0,0,0-14-7.8q-12.86-6.65-18-13.49a26.1,26.1,0,0,1-5.11-16.08q0-13.29,9.72-20.93t24.86-7.64q14.34,0,21.66,3.78v16.35q-8.8-6.59-22-6.58-8.43,0-13.59,3.66a11.61,11.61,0,0,0-5.17,10,12.76,12.76,0,0,0,3.78,9.5q3.78,3.72,16,10,14.2,7.17,19.62,14.38a26.89,26.89,0,0,1,5.42,16.58q0,13.95-9.36,21.33t-25.9,7.38a65.31,65.31,0,0,1-13.53-1.6q-7.44-1.59-11.44-4.25Z"/><path class="b" d="M1427.37,486.06h-14.76V440.88h-45.84v45.18H1352V383.13h14.76v43.73h45.84V383.13h14.76Z"/><path class="b" d="M1534.79,486.06h-52V383.13h14.76v89.24h37.22Z"/><path class="b" d="M1601.55,486.06h-52.79V383.13h50.63v13.69h-35.86v30.3h33.28v13.62h-33.28v31.63h38Z"/><path class="b" d="M1696.85,486.06H1680.6l-8.92-26.78h-38.14l-8.49,26.78h-16.24l35.93-102.93h16.42Zm-29.29-40-13.29-40.6a47.5,47.5,0,0,1-1.47-7.77h-.43a42.46,42.46,0,0,1-1.54,7.64l-13.23,40.73Z"/><path class="b" d="M1782.49,486.06H1765.2l-15.5-28q-4.56-8.24-8.28-11.23a13.24,13.24,0,0,0-8.52-3h-8v42.26h-14.76V383.13h30.33q14.82,0,22.91,7.21t8.1,20.44a28.51,28.51,0,0,1-5.6,17.74,29.3,29.3,0,0,1-15.63,10.3v.26q6.4,2.4,14.33,16.21Zm-57.59-89.77v34.29H1738q8.17,0,13.07-5.12a18.08,18.08,0,0,0,4.89-13q0-16.15-17.72-16.15Z"/><path class="b" d="M1874,486.06h-16.48L1812,410.18a46,46,0,0,1-3.69-7.24h-.37a131.31,131.31,0,0,1,.55,15v68.11h-14.33V383.13h17.47l44.23,74.42c2.1,3.55,3.49,6,4.19,7.38h.3a116.39,116.39,0,0,1-.67-14.75V383.13H1874Z"/><path class="b" d="M1912.61,396.16v89.9h-14.77V383.13h14.77Z"/><path class="b" d="M2016.46,486.06H2000l-45.59-75.88a47.79,47.79,0,0,1-3.69-7.24h-.37a130.57,130.57,0,0,1,.56,15v68.11h-14.34V383.13H1954l44.23,74.42c2.09,3.55,3.49,6,4.18,7.38h.31a116,116,0,0,1-.68-14.75V383.13h14.4Z"/><path class="b" d="M2114,479.08q-14.28,8.71-32.92,8.71-21.35,0-34.14-14T2034.18,436q0-24,14.18-39.31t36.52-15.31q15.38,0,26.33,5.11v16.35q-11.27-7.51-27.26-7.51-15.07,0-24.67,11t-9.6,28.77q0,18.35,8.83,28.61t23.9,10.27q10,0,16.8-4V444.2H2079V430.64H2114Z"/></svg>