<svg xmlns="http://www.w3.org/2000/svg" viewBox="0 0 2155.35 533.44"><defs><style>.a{fill:#5ac5f2;}.b{fill:#1d1d1b;}</style></defs><title>taolingo_white</title><path class="a" d="M1942.67,165.14a17.43,17.43,0,1,0-17.43,17.43A17.44,17.44,0,0,0,1942.67,165.14Z"/><path class="a" d="M2008.1,165.14a17.42,17.42,0,1,0-17.42,17.43A17.44,17.44,0,0,0,2008.1,165.14Z"/><path class="a" d="M2073.53,165.14a17.43,17.43,0,1,0-17.43,17.43A17.44,17.44,0,0,0,2073.53,165.14Z"/><rect class="a" x="1704.29" y="145.07" width="136.61" height="45.29"/><path class="a" d="M1098.36,279.52v51.33h-191V4.53h54.94v275Z"/><path class="a" d="M1140.22,4.53h54.93V330.85h-54.93Z"/><path class="a" d="M1471.14,330.85Q1456.3,304,1438,273.16T1400.07,211q-19.62-31.32-39.9-60.75t-38.58-53V330.85h-54.07V4.53h44.91q17.43,19.77,37.5,46.85t40.33,56.27q20.27,29.21,39.24,58.62t33.79,54.86V4.53h54.5V330.85Z"/><path class="a" d="M683.35,0a165,165,0,1,0,165,165A165,165,0,0,0,683.35,0Zm-.5,283a117.5,117.5,0,1,1,117.5-117.5A117.5,117.5,0,0,1,682.85,283Z"/><path class="a" d="M1827.15,182.57c-.13-7.2-.41-13.48-.82-19,0,.65,0,1.3,0,1.95A117,117,0,0,1,1806,231.56l10.58,56.71-48.68-21.18A117.51,117.51,0,1,1,1784.5,75.6s2.79,2.84,2.89,3,31.55-36,31.55-36l-.82-.72,0,0h0A165,165,0,1,0,1873.35,165"/><path class="a" d="M241.11,6.06V57.38H148.24v275H92.87v-275H0V6.06Z"/><path class="a" d="M459.11,332.38q-6.12-19.31-12.68-38.14t-12.67-38.62H306.13Q300,275.4,293.67,294.47t-12.45,37.91H224.09q17-52.28,32.24-96.53T286.17,152q14.59-39.56,29-75.34T344.76,6.06h52.45q15.26,34.85,29.64,70.63t29,75.34q14.61,39.56,30.09,83.82t32.48,96.53ZM370,69.16q-10,25-22.89,60.74t-26.82,77.69h99.41q-13.95-41.9-27-78.16T370,69.16Z"/><path class="a" d="M1825.35,166.54a165,165,0,1,0,165-165A165,165,0,0,0,1825.35,166.54Zm67.77,67.21a117.4,117.4,0,1,1,38.81,35.54l-49.45,21.52Z"/><path class="b" d="M1059.2,526H950.36v6.44H934.82v-72.2a143.45,143.45,0,0,1-16.29,15.42L908,462.05q27.12-21.58,42.83-49.61H913.32v-16h45.94a254.29,254.29,0,0,0,10.67-27.67L985,373.08q-4,12.69-8.4,23.4h80.13v16h-88A267.78,267.78,0,0,1,950.36,442v67.85H994V466.5H959.09V450.72H994V421.06h16v29.66h37.54V466.5H1010v43.36h49.21Z"/><path class="b" d="M1177,506.86a419.54,419.54,0,0,1-58.29,23l-4.62-14.51q22.59-6.25,58.79-23.22ZM1175.15,406a404.39,404.39,0,0,1-36.62,67.76q10-3.09,30.74-11.89l3.44,15.24a450.84,450.84,0,0,1-52.07,18.23l-4.53-14.69q14.52-17.23,27.55-42.72a224.77,224.77,0,0,1-23.52,5.17l-4.2-14.06q16.21-23.13,29.06-60.41l13.61,5.62A255.16,255.16,0,0,1,1135.93,424a95.45,95.45,0,0,0,16.88-4.44,123.87,123.87,0,0,0,9.07-20.59Zm91,92.52q-4.8,34.28-20.58,34.28-6,0-13.4-6.48t-13.64-17.82q-18.9,13.51-46.11,24.94l-7.9-13.79q27.63-10,48-25.4a142.82,142.82,0,0,1-7.73-35.73l-31,4.26L1172,447.45l31-4.53q-1.26-12.89-1.26-20.59l-23,3.35-1.93-15.42,24.27-3.35-.67-36.37,14.78-.82q-.17,11.43.67,35.19l41.83-5.62,2,15.06-43.17,6A130.75,130.75,0,0,0,1218,441.1l45.61-6.35,2.18,15.24-46.61,6.35a111.74,111.74,0,0,0,5.21,27.66q10.32-9.06,20.57-25.12l11.42,8.07a156,156,0,0,1-26.2,32.11,72.44,72.44,0,0,0,8.73,12.47c2.75,3,4.68,4.49,5.8,4.49a2.94,2.94,0,0,0,2.1-.9q.92-.92,3.11-8.35a99.24,99.24,0,0,0,3.19-15.33Zm-13-111.84-9.32,11.52a93.79,93.79,0,0,0-21.5-15.06l9.65-11.7A118,118,0,0,1,1253.09,386.68Z"/><path class="b" d="M1472.17,489.18h-67.11v28.48a14.11,14.11,0,0,1-3.27,9.29q-3.27,3.94-10.33,4.72a173.17,173.17,0,0,1-18.06.77c-3,0-5.93-.06-8.9-.18l-6.21-16.51q7.64.54,14.69.55,13.35,0,15.16-.82c1.21-.55,1.81-1.69,1.81-3.45V489.18h-68.11V473.94H1390V461.33q17.88-6.81,27.38-12.61h-68.62V433.48h98v15.06a251.77,251.77,0,0,1-41.66,22.5v2.9h67.11Zm-3.28-47.71h-15.28V419.7H1341.15v21.4h-15.53V404.28h143.27ZM1367.1,395.93l-14.78,5.63q-5.21-10.53-17.72-26l14.78-6.53Q1362.15,385.05,1367.1,395.93Zm41.83.55-14.7,4.71q-4.45-12-15.62-27.57l14.61-5.9A139.89,139.89,0,0,1,1408.93,396.48Zm50.39-19.5a130,130,0,0,1-22.09,25.3l-13.69-8.71q14.78-13.05,22.51-24.94Z"/><path class="b" d="M1647.07,462.78q-58.87,29-108.5,45l-6.55-16q49.38-14.61,108.76-43.09Zm26.54-88.34q-.84,50.88-3.23,88t-3.53,47.8q-1.12,10.66-7.26,16.42a21.15,21.15,0,0,1-15,5.76q-20.65,0-29.22-.54L1611,515.21q14.11.72,22.34.72,12.18,0,13.9-1.09a7.26,7.26,0,0,0,2.65-2.9q.92-1.81,2.43-18.09t3-44q1.52-27.66,2.44-59.32H1533.28V374.44Zm-55.26,61.49-9.91,12.43A306.68,306.68,0,0,0,1551,409l10.07-12.88Q1597.28,416.7,1618.35,435.93Z"/><path class="b" d="M1883.29,481.92h-69.54q-5,18.78-21.54,31t-50.85,20.14L1733.8,518q54.33-12.24,63.66-36.1H1736.9V467.5h14.45v-42h51.23q.33-7.71.34-15.6h15.37c0,4.35-.15,9.56-.42,15.6h49.88v42h15.54Zm-77.6-80.18h-19.23v16.32h-15.71V401.74H1735l.17-15.06h35.61V370.54h15.71v16.14h19.23Zm-3.11,38.64h-35.95V467.5h34.27Q1802,456.43,1802.58,440.38Zm83.4,78.91-8.91,14a297.72,297.72,0,0,0-63.49-30.48L1821.9,489Q1859.85,502.88,1886,519.29Zm-1.68-117.55h-35.44v16.32h-15.63V401.74h-19.48V386.68h19.48V370.54H1849v16.14h35.28Zm-31.5,65.76V440.38h-34.93q-.51,14.87-1.52,27.12Z"/><path class="b" d="M1991.09,500.88q-16.38,15.33-30.23,24l-7.39-14.33a11.48,11.48,0,0,0,3.78-8.89V433.3H1941V417.52h31.16v78.73a131.71,131.71,0,0,0,13.94-11.16ZM1979.92,400l-12.68,8.8a200.77,200.77,0,0,0-21.75-31.29l12.26-8.89A157,157,0,0,1,1979.92,400Zm111.45,56.33H1984.54V441.65h26.71l4.79-22.5H1992.1V404.28h27l3.45-15.78h-35.78V374.07h102.88V388.5h-51.31l-3.62,15.78h46.45l-3.28,37.37h13.44ZM2080,532.26h-15V523h-55.6v9.25h-14.94v-64.4H2080Zm-15-24.13V482.37h-55.6v25.76Zm.17-89h-33.34l-4.54,22.5H2063Z"/></svg>