<svg viewBox="0 0 256.42 112.228" xmlns="https://www.w3.org/2000/svg"><path d="M54.349 12.795h-.341l-.282-.472a.936.936 0 0 0-.074-.111.467.467 0 0 0-.074-.075.237.237 0 0 0-.082-.043.314.314 0 0 0-.1-.014h-.118v.715h-.29v-1.763h.58c.082 0 .159.01.228.03.07.02.13.05.182.09.052.039.092.088.121.148s.044.129.044.208c0 .062-.01.12-.028.172s-.045.098-.078.138a.493.493 0 0 1-.123.105.632.632 0 0 1-.162.066v.005c.032.018.06.037.084.06a1.086 1.086 0 0 1 .13.144l.07.102.313.495zm-1.07-1.525v.573h.243a.347.347 0 0 0 .125-.022.276.276 0 0 0 .164-.155.33.33 0 0 0 .023-.127.252.252 0 0 0-.08-.198.338.338 0 0 0-.23-.071h-.246zM55.522 12.244h-.858c.003.116.04.206.107.27a.403.403 0 0 0 .283.094c.134 0 .257-.04.37-.12v.23a.845.845 0 0 1-.455.107.562.562 0 0 1-.436-.17c-.105-.115-.158-.276-.158-.483a.67.67 0 0 1 .174-.479.568.568 0 0 1 .432-.185c.172 0 .306.055.4.166s.14.264.14.46v.11h.001zm-.275-.201a.366.366 0 0 0-.073-.24.245.245 0 0 0-.196-.085.278.278 0 0 0-.209.09.414.414 0 0 0-.105.235h.583zM56.694 12.738a.7.7 0 0 1-.358.087.603.603 0 0 1-.452-.175.617.617 0 0 1-.172-.454c0-.207.061-.374.185-.5a.664.664 0 0 1 .494-.189c.115 0 .217.021.304.061v.266a.46.46 0 0 0-.28-.099c-.12 0-.22.041-.297.122a.45.45 0 0 0-.115.32c0 .131.036.234.109.31.072.074.17.112.292.112a.455.455 0 0 0 .29-.109v.248zM58.043 12.244h-.858c.003.116.04.206.107.27a.403.403 0 0 0 .283.094c.134 0 .257-.04.37-.12v.23a.845.845 0 0 1-.455.107.562.562 0 0 1-.436-.17c-.105-.115-.158-.276-.158-.483a.67.67 0 0 1 .174-.479.568.568 0 0 1 .432-.185c.172 0 .306.055.4.166s.14.264.14.46v.11h.001zm-.275-.201a.366.366 0 0 0-.073-.24.245.245 0 0 0-.196-.085.278.278 0 0 0-.209.09.414.414 0 0 0-.105.235h.583zM59.436 12.795h-.286v-.709c0-.235-.083-.352-.25-.352a.27.27 0 0 0-.214.097.363.363 0 0 0-.085.246v.718h-.286v-1.259h.286v.21h.005a.45.45 0 0 1 .408-.239c.137 0 .241.045.314.134s.108.217.108.385v.769zM60.448 12.782a.49.49 0 0 1-.22.042c-.244 0-.366-.117-.366-.352v-.711h-.21v-.224h.21v-.291l.285-.081v.372h.301v.224h-.301v.63c0 .074.014.127.04.16.027.03.073.047.136.047a.2.2 0 0 0 .125-.042v.226zM65.714 12.723a1.076 1.076 0 0 1-.496.102c-.256 0-.46-.08-.614-.24-.155-.163-.231-.375-.231-.636 0-.283.086-.51.26-.684s.392-.26.657-.26c.17 0 .312.024.424.072v.29a.76.76 0 0 0-.394-.106.619.619 0 0 0-.464.184.674.674 0 0 0-.178.489c0 .194.056.349.166.464.111.115.257.173.437.173.166 0 .31-.04.433-.118v.27zM66.575 12.826a.625.625 0 0 1-.465-.176.639.639 0 0 1-.174-.468c0-.212.06-.377.181-.495a.667.667 0 0 1 .489-.178c.197 0 .35.057.46.173.11.116.164.276.164.48 0 .201-.059.362-.177.483a.639.639 0 0 1-.478.181zm.014-1.09c-.112 0-.2.04-.265.117a.485.485 0 0 0-.097.322.46.46 0 0 0 .098.311.33.33 0 0 0 .263.114.312.312 0 0 0 .26-.112c.06-.074.09-.18.09-.318s-.03-.245-.09-.32-.147-.114-.26-.114zM68.642 12.796h-.286v-.709c0-.235-.083-.352-.25-.352a.27.27 0 0 0-.214.097.363.363 0 0 0-.085.246v.718h-.287v-1.259h.287v.21h.005a.45.45 0 0 1 .408-.239c.137 0 .241.045.314.134s.108.217.108.385v.769zM69.653 12.783a.49.49 0 0 1-.22.042c-.244 0-.366-.117-.366-.352v-.712h-.21v-.223h.21v-.291l.285-.081v.372h.301v.224h-.301v.63c0 .074.013.127.04.16.027.03.073.047.135.047a.2.2 0 0 0 .126-.042v.226zM70.865 12.796h-.276V12.6h-.005a.417.417 0 0 1-.383.225.402.402 0 0 1-.29-.1.354.354 0 0 1-.106-.267c0-.237.137-.376.411-.415l.373-.053c0-.18-.084-.27-.255-.27a.606.606 0 0 0-.406.156v-.25a.88.88 0 0 1 .46-.118c.318 0 .477.156.477.47v.818zm-.275-.618l-.265.037c-.082.01-.143.03-.185.06s-.062.08-.062.153c0 .052.02.096.057.13s.09.052.153.052a.28.28 0 0 0 .216-.092.323.323 0 0 0 .085-.23v-.11zM72.115 12.739a.7.7 0 0 1-.358.087.603.603 0 0 1-.452-.175.617.617 0 0 1-.172-.454c0-.207.061-.374.185-.5a.664.664 0 0 1 .494-.188c.115 0 .217.02.304.06v.266a.46.46 0 0 0-.28-.099c-.12 0-.22.041-.297.122a.45.45 0 0 0-.115.32c0 .131.036.234.109.31.072.074.17.112.292.112a.455.455 0 0 0 .29-.109v.248zM73.062 12.783a.49.49 0 0 1-.22.042c-.244 0-.366-.117-.366-.352v-.712h-.21v-.223h.21v-.291l.285-.081v.372h.301v.224h-.301v.63c0 .074.013.127.04.16.027.03.073.047.135.047a.2.2 0 0 0 .126-.042v.226zM73.229 12.757v-.265a.57.57 0 0 0 .353.122c.172 0 .258-.05.258-.152 0-.028-.008-.053-.022-.073s-.035-.038-.06-.054-.055-.029-.088-.042a1.3 1.3 0 0 1-.253-.106.421.421 0 0 1-.104-.078.303.303 0 0 1-.083-.228c0-.061.015-.114.043-.16a.368.368 0 0 1 .116-.117.53.53 0 0 1 .165-.071.871.871 0 0 1 .503.028v.25a.528.528 0 0 0-.403-.08.273.273 0 0 0-.075.03.161.161 0 0 0-.048.048.116.116 0 0 0-.017.06c0 .028.006.05.017.07a.165.165 0 0 0 .051.05c.023.014.05.027.081.039l.11.039c.054.022.102.044.145.067.043.023.08.05.11.079a.304.304 0 0 1 .095.236c0 .063-.015.12-.044.167-.03.048-.07.087-.119.118s-.106.055-.17.07a.856.856 0 0 1-.203.022.865.865 0 0 1-.358-.069z" fill="#6264A7"/><path d="M209.91 1H40.13c-.794 0-1.439.644-1.439 1.439v106.58c0 .794.645 1.438 1.439 1.438h169.78c.794 0 1.438-.644 1.438-1.438V2.439c0-.795-.644-1.439-1.438-1.439z" fill="#E1DFDD"/><path d="M37.396 7.924h172.65V1.438c0-.794-.644-1.438-1.438-1.438H38.827c-.795 0-1.439.644-1.439 1.439v6.485z" fill="#464775"/><path d="M151.67 6.06H95.304a.72.72 0 0 1-.72-.719V2.698a.72.72 0 0 1 .72-.719h56.366a.72.72 0 0 1 .72.72V5.34a.72.72 0 0 1-.72.72z" fill="#F3F2F1"/><path d="M90.662 4.79a.211.211 0 0 1-.019.09.252.252 0 0 1-.127.126.217.217 0 0 1-.09.02H89.01c-.032 0-.062-.007-.09-.02a.25.25 0 0 1-.128-.127.211.211 0 0 1-.019-.09V3.375a.22.22 0 0 1 .02-.091.261.261 0 0 1 .126-.126.217.217 0 0 1 .09-.02h.63c.022 0 .04.008.055.024s.024.034.024.055-.008.04-.024.056a.078.078 0 0 1-.055.023h-.63a.076.076 0 0 0-.055.023.078.078 0 0 0-.023.056V4.79c0 .021.008.04.023.055a.076.076 0 0 0 .056.024h1.416c.021 0 .04-.008.055-.024a.078.078 0 0 0 .023-.055v-.63c0-.02.008-.04.024-.055s.034-.023.055-.023c.021 0 .04.007.056.023s.023.034.023.056v.629zm.314-1.653a.314.314 0 0 1-.092.223l-.935.936a.148.148 0 0 1-.043.02 1.21 1.21 0 0 1-.087.027l-.11.032-.112.027a1.515 1.515 0 0 1-.15.028c-.02 0-.038-.008-.055-.023s-.023-.034-.023-.055c0-.009.002-.027.007-.055s.013-.058.02-.093.018-.074.03-.113.02-.076.03-.11a2.28 2.28 0 0 1 .027-.087.15.15 0 0 1 .02-.044l.936-.935a.294.294 0 0 1 .102-.068.301.301 0 0 1 .242.001.323.323 0 0 1 .168.168c.017.038.025.08.025.121zm-.157 0a.147.147 0 0 0-.012-.06.16.16 0 0 0-.035-.05.156.156 0 0 0-.22-.002l-.922.922-.074.297.297-.076.92-.92c.014-.014.026-.03.034-.05s.012-.04.012-.06z" fill="#fff"/><circle cx="204.06" cy="3.959" r="2.693" fill="#B4E0F5"/><path fill="#fff" d="M49.031 7.924h45.88v101.54h-45.88z"/><path fill="#E1DFDD" d="M64.372 62.875h18.327v2.158H64.372zM64.372 66.655h12.687v1.438H64.372zM86.249 63.235h5.552v1.438h-5.552z"/><path fill="#E2E2F6" d="M49.031 17.261h45.88v13.868h-45.88z"/><path fill="#B3AFAB" opacity=".6" d="M64.384 21.314h18.327v2.158H64.384zM64.384 25.093h9.911v1.438h-9.911zM88.377 21.674h3.436v1.438h-3.436z"/><path fill="#E1DFDD" d="M64.372 76.675h13.84v2.158h-13.84zM64.372 80.455h13.84v1.438h-13.84zM88.365 77.035h3.436v1.438h-3.436zM64.384 91.068h18.327v2.158H64.384zM64.384 94.848h12.687v1.438H64.384zM87.11 91.428h4.702v1.438H87.11zM64.371 48.745h10.04v2.158h-10.04zM64.371 52.524h19.094v1.438H64.371zM88.364 49.104H91.8v1.438h-3.436z"/><circle cx="56.755" cy="65.692" r="3.968" fill="#E1DFDD"/><radialGradient id="a" cx="56.796" cy="-451.33" r="2.233" gradientTransform="matrix(1 0 0 -1 0 -384)" gradientUnits="userSpaceOnUse"><stop stop-color="#9B643D" offset=".067"/><stop stop-color="#E0BB95" offset=".847"/></radialGradient><path d="M56.755 69.66c.468 0 .91-.096 1.327-.244a.481.481 0 0 1-.2-.387v-1.716l-2.026.064-.002 1.703c0 .183-.128.33-.3.375.382.122.78.205 1.201.205z" fill="url(#a)"/><path d="M59.186 62.354l-4.992.028-.361-.186.36-.19 4.99-.029c.088 0 .159.084.16.188 0 .103-.07.188-.157.189z" fill="#EE8F94"/><linearGradient id="b" x1="729.89" x2="731.82" y1="-1217.8" y2="-1220.3" gradientTransform="scale(1 -1) rotate(-16.583 4365.2 1672.729)" gradientUnits="userSpaceOnUse"><stop stop-color="#594539" offset=".269"/><stop stop-color="#463228" offset=".811"/></linearGradient><circle cx="56.746" cy="61.681" r="1.599" fill="url(#b)"/><circle cx="56.741" cy="65.43" r="3.15" fill="#59453C"/><ellipse cx="56.754" cy="66.036" rx="2.363" ry="2.74" fill="#E0BB95"/><path d="M54.251 65.966a.592.592 0 0 0-.227.418.57.57 0 0 0 .135.45c.108.135.247.211.418.228a.588.588 0 0 0 .465-.143.585.585 0 0 0 .228-.404.728.728 0 0 0-.137-.465.668.668 0 0 0-.431-.22.596.596 0 0 0-.451.136zM58.44 65.966a.592.592 0 0 0-.227.418.57.57 0 0 0 .135.45c.108.135.247.211.418.228a.588.588 0 0 0 .465-.143.585.585 0 0 0 .228-.404.728.728 0 0 0-.137-.465.668.668 0 0 0-.431-.22.596.596 0 0 0-.451.136z" fill="#E0BB95"/><path d="M54.531 63.747c-.576.798-.686 1.618-.459 2.49.352-.525.7-.352 1.198-.482.64-.169 1.343-.133 1.825-.627.62-.634.671-1.681.62-2.206-.013-.136-2.278-.359-3.184.825z" fill="#594539"/><path d="M57.602 63.378c-.22.539-.15 2.463 1.83 2.57.03-.808.115-1.598-.343-2.235-.445-.574-1.15-1.161-1.487-.335z" fill="#594539"/><path d="M57.798 67.381a.95.95 0 0 1 0-1.897.95.95 0 0 1 0 1.897zm0-1.667a.72.72 0 0 0 0 1.437.72.72 0 0 0 0-1.437zM55.734 67.406a.95.95 0 1 1 .949-.95.95.95 0 0 1-.949.95zm0-1.667a.72.72 0 1 0 .002 1.438.72.72 0 0 0-.002-1.438z" fill="#9B643D"/><path d="M56.568 66.356a.115.115 0 0 1-.001-.23l.392-.005h.001a.115.115 0 0 1 .002.23l-.393.005h-.001z" fill="#9B643D"/><ellipse transform="rotate(-89.754 55.8 66.425)" cx="55.799" cy="66.424" rx=".316" ry=".168" fill="#33312D"/><ellipse transform="rotate(-89.754 57.722 66.434)" cx="57.72" cy="66.432" rx=".316" ry=".168" fill="#33312D"/><path d="M57.085 67.955c-.153.11-.333.122-.52.106-.181-.041-.362-.159-.43-.327a.099.099 0 0 1 .138-.124l.01.005c.127.067.218.129.342.142.115.043.252.02.386.023h.02a.096.096 0 0 1 .054.175z" fill="#BF8F68"/><path fill="#E1DFDD" d="M64.384 35.091h19.081v2.158H64.384zM64.384 38.87h18.314v1.438H64.384zM87.146 35.45h4.667v1.438h-4.667z"/><path fill="#6264A7" d="M52.661 13.801h7.962v.88h-7.962zM52.661 11.033h7.962v1.792h-7.962z"/><path d="M49.031 109.46H38.835a1.439 1.439 0 0 1-1.438-1.438V7.921h11.635v101.54z" fill="#33344A"/><path d="M42.015 31.564c0 .077-.015.15-.045.218a.594.594 0 0 1-.302.302.53.53 0 0 1-.217.045c-.077 0-.149-.015-.217-.045a.597.597 0 0 1-.302-.302.53.53 0 0 1 0-.435.585.585 0 0 1 .302-.302.529.529 0 0 1 .216-.044c.077 0 .15.014.218.044s.128.072.18.123c.05.051.091.11.122.18s.045.14.045.216zm0 .847v1.427h-.282c-.093 0-.189-.01-.288-.029a.904.904 0 0 1-.273-.097.598.598 0 0 1-.205-.18.466.466 0 0 1-.08-.28v-.841h1.128zm1.974-.283V33.8c0 .113-.027.205-.08.28s-.123.135-.205.18a.96.96 0 0 1-.273.096 1.476 1.476 0 0 1-.573-.001c-.1-.02-.19-.053-.274-.097a.615.615 0 0 1-.206-.18.464.464 0 0 1-.081-.278v-1.672h1.692zm-.282-.845a.537.537 0 0 1-.045.217.587.587 0 0 1-.302.301c-.068.03-.14.045-.217.045s-.149-.014-.217-.045a.597.597 0 0 1-.302-.301.537.537 0 0 1 0-.434.575.575 0 0 1 .519-.348.548.548 0 0 1 .396.168.575.575 0 0 1 .168.397zm1.692.281c0 .077-.015.15-.045.218a.596.596 0 0 1-.302.302.529.529 0 0 1-.217.044c-.076 0-.149-.014-.217-.044a.594.594 0 0 1-.302-.302.53.53 0 0 1-.045-.218.575.575 0 0 1 .564-.563c.077 0 .149.014.217.044a.597.597 0 0 1 .302.302c.03.069.045.14.045.217zm0 .847v.841a.466.466 0 0 1-.08.28.594.594 0 0 1-.205.18.907.907 0 0 1-.273.097c-.1.02-.195.03-.288.03h-.282V32.41H45.4zM45.077 40.931v2.654c0 .102-.029.185-.087.25s-.132.112-.221.142c-.13.045-.264.079-.402.105a5.478 5.478 0 0 1-.847.086 20.444 20.444 0 0 1-.835 0 5.429 5.429 0 0 1-.846-.086 2.837 2.837 0 0 1-.402-.105c-.09-.03-.163-.078-.221-.143s-.087-.147-.087-.249v-2.654a.433.433 0 0 1 .423-.424h.705l-.005-.09c-.002-.032-.002-.06-.002-.09 0-.024.002-.05.005-.079.003-.028.01-.054.02-.079s.024-.044.044-.06c.019-.016.045-.025.079-.025s.06.01.08.025c.02.016.035.036.045.06s.017.051.02.081a.818.818 0 0 1 .002.17l-.006.087h1.128l-.005-.09c-.002-.032-.001-.06-.001-.09 0-.024.001-.05.004-.079.003-.028.01-.054.02-.079s.025-.044.044-.06c.019-.016.045-.025.079-.025s.06.01.08.025c.02.016.035.036.045.06s.018.051.02.081a.818.818 0 0 1 .002.17c0 .029-.003.058-.006.087h.705c.057 0 .112.012.163.034a.454.454 0 0 1 .226.227.4.4 0 0 1 .034.163zM41.975 42.2h.564v-.565h-.564v.565zm0 .845h.564v-.563h-.564v.563zm.846-.845h.564v-.565h-.564v.565zm0 .845h.564v-.563h-.564v.563zm.846-.845h.564v-.565h-.564v.565zM44.865 50.195v3.666a.395.395 0 0 1-.034.162.446.446 0 0 1-.39.26h-2.538c-.057 0-.11-.01-.162-.033s-.095-.054-.134-.093a.448.448 0 0 1-.093-.134.395.395 0 0 1-.034-.162v-2.397h1.406v-1.692h1.556a.414.414 0 0 1 .296.127c.04.04.07.083.093.134.022.05.034.104.034.162zm-2.26-.309v1.296h-1.1a.486.486 0 0 1 .043-.084 5.213 5.213 0 0 1 .387-.464 8.493 8.493 0 0 0 .495-.57c.05-.065.108-.125.174-.178zM45.32 101.01a.412.412 0 0 1-.12.287l-.66.66a.41.41 0 0 1 .253.368v1.053a.36.36 0 0 1-.032.152.417.417 0 0 1-.211.212.36.36 0 0 1-.151.03h-2.633c-.053 0-.104-.01-.151-.03s-.089-.05-.126-.087a.427.427 0 0 1-.086-.125.367.367 0 0 1-.032-.152v-2.632a.37.37 0 0 1 .032-.151.427.427 0 0 1 .212-.21.362.362 0 0 1 .151-.033h1.053a.42.42 0 0 1 .309.151c.024.03.044.065.06.102l.66-.66a.404.404 0 0 1 .287-.12.41.41 0 0 1 .288.12l.778.777a.405.405 0 0 1 .119.288zm-2.37.92v-1.184a.129.129 0 0 0-.038-.092.13.13 0 0 0-.093-.04h-1.053a.13.13 0 0 0-.093.04.129.129 0 0 0-.039.092v1.185h1.317zm0 1.58v-1.316h-1.316v1.184c0 .036.014.067.04.093.026.026.057.04.092.04l1.185-.001zm2.107-2.5a.136.136 0 0 0-.011-.055.173.173 0 0 0-.03-.046l-.78-.779a.138.138 0 0 0-.155-.03.17.17 0 0 0-.046.03l-.78.78a.173.173 0 0 0-.03.045.136.136 0 0 0 0 .11.19.19 0 0 0 .03.046l.78.779a.147.147 0 0 0 .046.03.131.131 0 0 0 .11 0 .147.147 0 0 0 .045-.03l.78-.78a.19.19 0 0 0 .03-.045.142.142 0 0 0 .01-.055zm-1.354.92l-.489-.488v.489h.49zm.827 1.448v-1.052a.129.129 0 0 0-.039-.093.13.13 0 0 0-.092-.04h-1.185v1.317h1.185a.126.126 0 0 0 .092-.04.127.127 0 0 0 .04-.092zM45.148 13.914c0 .04-.007.074-.023.108a.31.31 0 0 1-.152.152.274.274 0 0 1-.107.022h-3.385a.268.268 0 0 1-.197-.085c-.025-.025-.046-.054-.061-.089s-.023-.069-.023-.108c0-.068.013-.121.041-.156s.063-.063.105-.081a.59.59 0 0 1 .136-.044.712.712 0 0 0 .135-.044c.042-.02.077-.047.105-.082s.042-.087.042-.156v-1.128a1.411 1.411 0 0 1 .416-.995 1.422 1.422 0 0 1 .992-.415 1.36 1.36 0 0 1 1.004.44 1.503 1.503 0 0 1 .408 1.024v1.074c0 .069.014.12.042.156s.063.062.105.082a.719.719 0 0 0 .135.044c.049.01.094.024.136.044.042.018.077.045.105.08s.041.089.041.157zm-1.269.705c0 .098-.019.189-.056.273a.725.725 0 0 1-.376.376c-.085.037-.176.056-.273.056s-.188-.019-.273-.056a.734.734 0 0 1-.375-.376.667.667 0 0 1-.057-.273c0-.038.014-.071.042-.099a.134.134 0 0 1 .1-.041h1.127c.039 0 .071.013.1.042.027.027.041.06.041.098z" fill="#fff"/><path fill="#6264A7" d="M37.396 17.642h11.635v9.518H37.396z"/><path d="M45.077 20.844v3.765a.297.297 0 0 1-.09.214.315.315 0 0 1-.216.09c-.046 0-.089-.01-.13-.03s-.075-.049-.106-.082l-.692-.765-.028-.013c-.143.003-.285.01-.427.02-.142.01-.284.015-.426.015s-.288-.001-.438-.005a7.697 7.697 0 0 1-.448-.025 5.104 5.104 0 0 1-.444-.06 2.905 2.905 0 0 1-.422-.108.601.601 0 0 1-.262-.167.414.414 0 0 1-.102-.29v-2.56a.424.424 0 0 1 .133-.31c.04-.04.088-.073.142-.096s.11-.036.17-.036h3.341c.06 0 .117.012.171.036a.442.442 0 0 1 .274.407zm-3.102.967h1.974v-.281h-1.974v.28zm0 .847h1.315v-.283h-1.315v.282z" fill="#fff"/><path d="M208.61 109.46H94.91V7.92h115.14v100.1c0 .794-.644 1.438-1.438 1.438z" fill="#F3F2F1"/><path fill="#E2E2F6" d="M102.85 23.056h20.244v1.438H102.85zM127.75 23.056h6.166v1.438h-6.166zM167.18 23.056h19.384v1.438H167.18zM156.19 23.056h6.328v1.438h-6.328zM138.57 23.056h12.972v1.438H138.57zM102.85 25.917h20.244v1.079H102.85z"/><path d="M200.02 93.038h-70.279a.72.72 0 0 1-.72-.72V75.436a.72.72 0 0 1 .72-.72h70.279a.72.72 0 0 1 .72.72v16.884a.72.72 0 0 1-.72.719z" fill="#C2BADB"/><path fill="#8B8CC4" d="M132.61 78.424h52.85v1.438h-52.85z"/><path fill="#8B8CC4" opacity=".6" d="M132.61 81.872h63.012v1.438H132.61zM132.61 85.32h56.839v1.438H132.61zM132.61 88.814h13.521v1.438H132.61z"/><path d="M200.02 58.077h-52.676a.72.72 0 0 1-.72-.72v-10.02a.72.72 0 0 1 .72-.718h52.676a.72.72 0 0 1 .72.719v10.02a.72.72 0 0 1-.72.719z" fill="#C2BADB"/><path fill="#8B8CC4" opacity=".6" d="M151.31 49.836h44.664v1.438H151.31zM151.35 53.617h32.049v1.438H151.35z"/><path d="M183.67 71.356h-69.411a.72.72 0 0 1-.72-.72v-8.864a.72.72 0 0 1 .72-.719h69.411a.72.72 0 0 1 .72.72v8.864a.72.72 0 0 1-.72.719z" fill="#fff"/><path fill="#D9DADD" d="M118.11 67.266h16.708v1.438H118.11zM118.11 64.388h60.358v1.438H118.11z"/><path d="M124.07 43.232h-9.784a.72.72 0 0 1-.719-.72V32.97a.72.72 0 0 1 .72-.72h9.783a.72.72 0 0 1 .72.72v9.543a.72.72 0 0 1-.72.719z" fill="#fff"/><path fill="#E1DFDD" d="M112.92 13.671h38.287v3.237H112.92z"/><circle cx="185.78" cy="15.289" r="2.877" fill="#C2BADB"/><path d="M186.19 14.911v.944a.21.21 0 0 1-.203.202h-1.035a.169.169 0 0 1-.103-.03c-.028-.022-.051-.05-.069-.084s-.032-.073-.042-.116a1.137 1.137 0 0 1-.03-.254l-.002-.102v-.175l.001-.103a1.44 1.44 0 0 1 .031-.254c.01-.043.024-.082.042-.116s.041-.061.069-.083a.169.169 0 0 1 .103-.031h1.035c.028 0 .054.006.078.017s.046.025.064.043.034.04.044.065a.18.18 0 0 1 .017.077zm.674 0v.944a.063.063 0 0 1-.02.047.064.064 0 0 1-.047.02.063.063 0 0 1-.047-.019l-.34-.325a.27.27 0 0 1-.085-.195.265.265 0 0 1 .084-.195l.341-.325a.063.063 0 0 1 .047-.02c.018 0 .034.007.047.021.013.013.02.028.02.047z" fill="#fff"/><circle cx="192.6" cy="15.289" r="2.877" fill="#C2BADB"/><path d="M193.41 15.997a.273.273 0 0 1-.008.07.645.645 0 0 1-.05.135.2.2 0 0 1-.036.053c-.014.014-.031.025-.052.033s-.044.012-.074.012c-.01 0-.02 0-.03-.002a1.664 1.664 0 0 1-.861-.583 1.574 1.574 0 0 1-.313-1.074c.003-.035.013-.066.029-.092s.037-.046.067-.062a.27.27 0 0 1 .118-.021c.032 0 .06 0 .083.003s.045.007.065.014.038.02.055.036.036.038.054.065a.61.61 0 0 1 .078.162.68.68 0 0 1 .032.176.305.305 0 0 1-.055.18.57.57 0 0 1-.058.07 3.223 3.223 0 0 1-.069.071l.325.468.06-.028.06-.027.063-.02a.335.335 0 0 1 .16.006.549.549 0 0 1 .165.09l.07.063.042.042a.355.355 0 0 1 .069.102.147.147 0 0 1 .011.058z" fill="#fff"/><circle cx="199.42" cy="15.289" r="2.877" fill="#D9DADD"/><path d="M198.88 14.978a.253.253 0 0 1-.021.103.278.278 0 0 1-.249.167.25.25 0 0 1-.104-.022.28.28 0 0 1-.145-.145.253.253 0 0 1 .001-.207.29.29 0 0 1 .144-.144.25.25 0 0 1 .104-.022c.037 0 .071.007.104.022a.288.288 0 0 1 .144.144.258.258 0 0 1 .022.104zm0 .404v.684h-.135a.756.756 0 0 1-.138-.014.48.48 0 0 1-.13-.047.292.292 0 0 1-.098-.086.224.224 0 0 1-.039-.133v-.404h.54zm.944-.134v.674a.226.226 0 0 1-.038.134.283.283 0 0 1-.098.086.47.47 0 0 1-.13.046.678.678 0 0 1-.274 0c-.049-.01-.092-.025-.132-.047s-.072-.05-.098-.086a.221.221 0 0 1-.04-.133v-.674h.81zm-.135-.405a.264.264 0 0 1-.08.19.273.273 0 0 1-.19.08.271.271 0 0 1-.19-.08.264.264 0 0 1 .001-.38.29.29 0 0 1 .085-.058c.033-.014.068-.021.104-.021s.072.007.104.021a.289.289 0 0 1 .144.145.248.248 0 0 1 .022.103zm.81-.202a.067.067 0 0 1-.067.067h-.203v.203a.065.065 0 0 1-.02.048.068.068 0 0 1-.115-.048v-.202h-.202a.066.066 0 0 1-.048-.02c-.013-.014-.02-.03-.02-.048s.007-.034.02-.048a.066.066 0 0 1 .048-.02h.202v-.201a.068.068 0 0 1 .115-.048c.013.013.02.029.02.048v.202h.202a.067.067 0 0 1 .068.067z" fill="#16233A"/><path d="M200.02 104.22h-85.769a.72.72 0 0 1-.72-.72v-4.315a.72.72 0 0 1 .72-.719h85.769a.72.72 0 0 1 .72.72v4.315a.72.72 0 0 1-.72.719z" fill="#fff"/><linearGradient id="c" x1="233.37" x2="208.19" y1="258.05" y2="269.17" gradientTransform="translate(0 -166)" gradientUnits="userSpaceOnUse"><stop stop-color="#C8C6C4" offset="0"/><stop stop-color="#E1DFDD" offset="1"/></linearGradient><path d="M228.26 82.232l-24.466 23.784 4.818 6.105s8.34.95 12.106-2.815l13.836-14.352s-2.743-16.174-6.293-12.722z" fill="url(#c)"/><path d="M216.89 73.786c3.201 6.363 5.025 7.497 9.69 8.74s9.05-4.928 9.05-4.928l1.876 1.6s-4.233 16.3-15.152 14.753c-11.066-1.567-18.94-9.041-18.125-17.376.696-7.123 9.42-9.228 12.66-2.79z" fill="#7C7EBB"/><linearGradient id="d" x1="236.58" x2="248.37" y1="272.49" y2="254.32" gradientTransform="translate(0 -166)" gradientUnits="userSpaceOnUse"><stop stop-color="#C8C6C4" offset="0"/><stop stop-color="#E1DFDD" offset="1"/></linearGradient><path d="M256.17 111.14l-2.942-1.522c-.508-.262-.935-.737-1.26-1.463l-11.345-23.846c-2.127-4.472-8.019-5.53-11.57-2.079l6.293 12.722 13.102 15.561a1.65 1.65 0 0 0 1.643 1.59l5.785.024c.537.003.744-.697.293-.987z" fill="url(#d)"/><radialGradient id="e" cx="216.87" cy="258.96" r="25.717" gradientTransform="matrix(1.0339 0 .0858 1 -31.838 -166)" gradientUnits="userSpaceOnUse"><stop stop-color="#6264A7" offset="0"/><stop stop-color="#8B8CC7" offset=".746"/></radialGradient><path d="M207 104.18h-16.338l-1.852-21.59c-1.012-8.958 4.39-17.379 11.644-17.379h3.202c7.255 0 13.623 5.688 14.225 12.705l1.164 13.558c.602 7.017-4.791 12.705-12.045 12.705z" fill="url(#e)"/><path d="M208.66 66.131a14.11 14.11 0 0 0-5.002-.931h-3.203c-.7 0-1.461.157-2.123.26.434 2.032 3.048 3.573 5.83 3.573 2.425 0 4.235-1.24 4.498-2.902zM237.51 79.198c-.157-.046-3.929-1.408-3.848-1.602l2.347-5.638c.08-.194.273-.314.43-.268l2.679-.002c.72.167 1.208 1.122.58 2.798l-2.188 4.712z" fill="#E0BB95"/><path d="M236.44 79.294h-11.682c-.552 0-.955-.395-.9-.881l1.622-14.168c.056-.487.548-.881 1.1-.881h11.683c.552 0 .954.395.899.881l-1.621 14.168c-.056.487-.549.881-1.101.881z" fill="#605D5A"/><path d="M223.78 79.198s4.157-1.671 4.48-3.406c.455-.777.51-.852.58-1.194.158-.753-.44-.713-.44-.713s.589-.602.286-1.048-4.437 2.16-4.437 2.16l.215-1.88s-2.56 2.655-2.56 4.481c0 .57 1.876 1.6 1.876 1.6z" fill="#E0BB95"/><path d="M202.2 73.593c2.362 6.81 3.548 8.243 8.243 9.369 4.696 1.126 11.47-5.364 11.47-5.364l1.915 1.553s-5.052 15.155-16.08 15.024c-10.098-.12-18.844-9.543-18.238-17.895.518-7.139 10.328-9.497 12.69-2.687z" fill="#8B8CC4"/><radialGradient id="f" cx="208.35" cy="224.18" r="5.106" gradientTransform="matrix(.9218 .0427 -.0362 .7812 22.487 -120.92)" gradientUnits="userSpaceOnUse"><stop stop-color="#9B643D" offset="0"/><stop stop-color="#B6865F" offset=".273"/><stop stop-color="#CDA37C" offset=".566"/><stop stop-color="#DBB58F" offset=".819"/><stop stop-color="#E0BB95" offset="1"/></radialGradient><path d="M205.52 68.074l-3.57-.165a2.365 2.365 0 0 1-2.253-2.472l.308-6.652 8.112.376-.317 6.835a2.182 2.182 0 0 1-2.28 2.078z" fill="url(#f)"/><radialGradient id="g" cx="216.32" cy="235.88" r="10.61" gradientTransform="rotate(-4.656 -1841.789 368.15)" gradientUnits="userSpaceOnUse"><stop stop-color="#915A37" offset="0"/><stop stop-color="#DCB38B" offset="1"/></radialGradient><radialGradient id="h" cx="6198.9" cy="-1196.5" r="8.705" gradientTransform="matrix(-.9916 .1293 -.1581 -1.2128 6163.6 -2196.1)" gradientUnits="userSpaceOnUse"><stop stop-color="#915A37" offset="0"/><stop stop-color="#DCB38B" offset="1"/></radialGradient><path d="M206.03 57.948l-7.364-.428.247-4.24a2.452 2.452 0 0 1 2.59-2.305l4.916.285a3.35 3.35 0 1 1-.389 6.688z" fill="#E1DFDD"/><circle cx="200.25" cy="57.785" r="1.92" fill="#E0BB95"/><path d="M206.23 65.487a6.461 6.461 0 0 1-6.075-6.825l.215-3.716a2.637 2.637 0 0 1 2.786-2.48l8.7.506-.46 7.916a4.89 4.89 0 0 1-5.166 4.599z" fill="#E0BB95"/><path d="M209.55 53.601c-1.577-.502-2.862-.745-4.487-.91-2.539-.256-4.648.027-4.648.027l.073-.757c.166-1.716 1.328-3.24 3.406-2.806 3.189.666 2.555-.312 3.944-.306 1.319.005 1.52 1.324 2.07 1.373 1.332.119 1.198-1.641 3.164-1.035 1.669.515 2.263 6.257-3.522 4.414z" fill="#E1DFDD"/><ellipse transform="rotate(-86.675 205.055 57.17)" cx="205.06" cy="57.168" rx=".814" ry=".473" fill="#594539"/><radialGradient id="i" cx="7056.2" cy="1773.3" r="3.864" gradientTransform="matrix(-.971 -.0495 -.0366 .7182 7122.7 -865)" gradientUnits="userSpaceOnUse"><stop stop-color="#BF8F68" offset="0"/><stop stop-color="#BF8F68" stop-opacity="0" offset="1"/></radialGradient><path d="M211.22 65.014l-4.574-.271.253-4.015a.63.63 0 0 1 .316-.506l.94-.538a.43.43 0 0 0 .163-.583l-.708-1.27a1.817 1.817 0 0 1-.227-.993l.258-4.304 4.574.271-.995 12.208z" fill="url(#i)"/><ellipse transform="rotate(-86.675 209.193 57.317)" cx="209.19" cy="57.316" rx=".814" ry=".473" fill="#594539"/><path d="M200.19 51.91s3.046-.513 3.02 1.779c-.017 1.361-1.033 1.993-1.905 2.125-.782.118-1.369.079-1.369.079l.254-3.983z" fill="#E1DFDD"/><path d="M205.12 60.932c.435.383.716.545 1.042.655.33.11.67.179 1.234.183h.017a.166.166 0 0 1 .148.24c-.297.596-1.101.827-1.756.585a1.555 1.555 0 0 1-.797-.644 1.271 1.271 0 0 1-.17-.94.165.165 0 0 1 .27-.09l.012.011z" fill="#BF8F68"/><path d="M209.12 112.23h-8.253c-5.256 0-9.871-4.122-10.308-9.206l-.518-6.034h17.771l1.308 15.24z" fill="#E1DFDD"/><path d="M248.77 111.24l-2.942-1.522c-.508-.262-.935-.737-1.26-1.463l-11.345-23.846c-2.127-4.472-8.019-5.53-11.57-2.079l-26.86 21.364 5.684 5.71c3.765 3.765 9.869 3.765 13.633 0l13.836-14.351 13.102 15.56a1.65 1.65 0 0 0 1.643 1.59l5.785.024c.537.003.744-.696.293-.987z" fill="#E1DFDD"/><path d="M238.93 72.778l-1.383-.238a.553.553 0 0 1 .188-1.09l1.383.238a.553.553 0 0 1-.188 1.09zM238.52 74.298l-1.383-.238a.553.553 0 1 1 .188-1.09l1.383.238a.553.553 0 1 1-.188 1.09z" fill="#E0BB95"/><path d="M238.53 75.377l-1.383-.238a.553.553 0 1 1 .188-1.09l1.383.238a.553.553 0 1 1-.188 1.09z" fill="#E0BB95"/><path d="M238.28 76.397l-.715-.123a.553.553 0 1 1 .187-1.09l.716.123a.553.553 0 1 1-.188 1.09zM199.36 64.852c-.19.299-1.03.607-1.03.607l2.06.43-.612-2.393s-.032.751-.418 1.356z" fill="#E0BB95"/><path fill="#6264A7" d="M64.373 11.033h9.749v1.792h-9.749z"/><circle cx="119.18" cy="37.742" r="4.398" fill="#F7B548"/><circle cx="117.56" cy="36.575" r=".673" fill="#2B2B2A"/><circle cx="120.88" cy="36.575" r=".673" fill="#2B2B2A"/><path d="M116.21 38.549c.359 1.301 1.57 2.289 2.962 2.289s2.648-.987 2.962-2.289h-5.924z" fill="#E3646A"/><path d="M121.96 39.088c.09-.18.135-.359.18-.538h-5.97c.046.179.135.359.18.538h5.61z" fill="#F3F3F3"/><path d="M116.98 38.19h-.27a1.896 1.896 0 0 1-1.884-1.885v-.628h4.039v.628a1.896 1.896 0 0 1-1.885 1.885zM121.69 38.19h-.27a1.896 1.896 0 0 1-1.884-1.885v-.628h4.039v.628a1.896 1.896 0 0 1-1.885 1.885z" fill="#33312D"/><path d="M123.16 37.462l-1.742-1.784h-1.032l2.218 2.261c.216-.122.403-.284.556-.477z" fill="#797673"/><circle cx="204.06" cy="3.938" r="2.693" fill="#B4E0F5"/><path d="M201.96 3.213a17.027 17.027 0 0 1-.206 2.117 2.682 2.682 0 0 0 2.306 1.322c1.055 0 1.96-.613 2.4-1.497a24.064 24.064 0 0 1-.29-2.117c-.028-.321-4.157-.083-4.21.175z" fill="#3A312E"/><ellipse transform="matrix(.0082 -1 1 .0082 199.12 207.3)" cx="204.07" cy="3.268" rx="2.347" ry="2.113" fill="#3A312E"/><path d="M202.36 6.034c.464.38 1.05.618 1.697.618.628 0 1.199-.224 1.657-.585a8.421 8.421 0 0 0-1.263-.471c.03.077-1.555.325-1.587.325-.181 0-.35.043-.504.113z" fill="#8B8CC7"/><path d="M205.03 5.782c-.511-.136-.555-.49-.558-.577V4.178h-.938V5.48a.335.335 0 0 1-.26.326l-.558.124c.004.003 1.097.358 2.54-.058-.07-.027-.175-.072-.226-.09z" fill="#BF8F68"/><ellipse transform="rotate(-88.671 202.648 4.221)" cx="202.64" cy="4.222" rx=".279" ry=".268" fill="#F7C6C8"/><ellipse transform="rotate(-89.53 203.88 3.286)" cx="203.89" cy="3.284" rx="1.699" ry="1.402" fill="#BF8F68"/><ellipse transform="rotate(-88.671 204.363 3.356)" cx="204.35" cy="3.356" rx=".22" ry=".131" fill="#3A312E"/><radialGradient id="j" cx="1758.7" cy="-384.03" r=".681" gradientTransform="matrix(-.9978 .067 -.0707 -1.0519 1931.1 -518.11)" gradientUnits="userSpaceOnUse"><stop stop-color="#9B643D" offset="0"/><stop stop-color="#BA8A63" stop-opacity=".118" offset=".882"/><stop stop-color="#BF8F68" stop-opacity="0" offset="1"/></radialGradient><path d="M203.82 2.415l-.038.563a.938.938 0 0 1-.295.592c-.064.061-.096.21-.021.3.04.05.22.159.219.292l-.021.52h-1.06l.07-2.311 1.146.044z" fill="url(#j)"/><path d="M203.62 4.265c.097.01.451-.064.523-.104l.032-.017c.016-.01.05.023.05.028.01.194-.174.248-.286.296-.125.002-.307.011-.38-.148a.04.04 0 0 1 .02-.054c.007-.003.041-.001.041-.001z" fill="#9B643D"/><path d="M202.5 1.931s.3.154.675-.057c.32-.18.576.117.725.34.32.478.862.903 1.399.837.384-.047.493-1.3-.632-1.715-1.177-.434-2.167.595-2.167.595z" fill="#3A312E"/><path d="M204.76 3.879l.552.004c.22.002.4-.174.401-.394v-.032a.398.398 0 0 0-.394-.401l-.552-.005-.007.828z" fill="#BF8F68"/><ellipse transform="rotate(-88.671 205.344 4.165)" cx="205.34" cy="4.162" rx=".279" ry=".268" fill="#F7C6C8"/><ellipse transform="translate(-.018 1.361)" cx="203.2" cy="3.3" rx=".131" ry=".22" fill="#3A312E"/><circle cx="56.755" cy="93.914" r="3.968" fill="#B3AFAB"/><radialGradient id="k" cx="56.976" cy="-479.55" r="1.53" gradientTransform="matrix(1 0 0 -1 0 -384)" gradientUnits="userSpaceOnUse"><stop stop-color="#9A6541" offset="0"/><stop stop-color="#BE906B" offset="1"/></radialGradient><path d="M55.739 97.734a3.93 3.93 0 0 0 1.016.148c.416 0 .81-.082 1.186-.2l.022-1.652h-2.224v1.704z" fill="url(#k)"/><path d="M57.869 91.059c-.705.475-1.113 1.015-1.113 1.015s1.149.036 1.914 1.387c.113.207.126.633.04 1.277-.06.652-.032 1.071.042 1.235.091.292.43.89 1.464.915 1.22.03 1.678-.8 1.647-.793-.752.16-.782-.812-.782-.812.138-2.324.124-3.024.055-3.33-.247-1.091-1.015-1.283-1.35-1.366-.564-.113-1.203.044-1.917.472z" fill="#594539"/><path d="M59.015 91.276c-.601-.65-1.333-.983-2.196-1-.862-.011-1.606.3-2.23.933-.62.633-.938 1.403-.951 2.31-.014.912.28 1.692.88 2.342s1.334.98 2.196.993 1.606-.298 2.231-.932c.62-.63.937-1.4.951-2.31.014-.908-.28-1.686-.881-2.336z" fill="#594539"/><ellipse cx="56.843" cy="94.147" rx="2.238" ry="3.071" fill="#BE906B"/><radialGradient id="l" cx="-38.627" cy="-1252.2" r=".946" gradientTransform="matrix(1 0 0 -.9918 95.35 -1147)" gradientUnits="userSpaceOnUse"><stop stop-color="#956D4E" stop-opacity=".878" offset="0"/><stop stop-color="#A7754B" stop-opacity="0" offset=".937"/></radialGradient><path d="M56.809 93.36h-1.49v2.7h1.49v-2.7z" fill="url(#l)"/><path d="M56.637 95.295c.114.057.172.091.172.101 0 0 .35-.765 0-1.342l-.047.203c-.057.162-.392.387-.414.64-.005.094.034.303.289.398z" fill="#BE906B"/><path d="M57.514 95.844c-.06.231-.264.38-.497.448-.239.018-.469-.04-.613-.188a.132.132 0 0 1 .108-.222h.008c.172.019.307.061.425.02.124.003.228-.091.346-.17l.032-.023a.125.125 0 0 1 .191.135z" fill="#9A6541"/><ellipse cx="55.797" cy="94.312" rx=".208" ry=".346" fill="#3A312E"/><ellipse cx="57.816" cy="94.322" rx=".208" ry=".346" fill="#3A312E"/><circle cx="54.658" cy="94.614" r=".629" fill="#BE906B"/><circle cx="59.015" cy="94.614" r=".629" fill="#BE906B"/><path d="M59.185 91.738c-.023.007-.136.699-.389.91-.582-.895-1.361-.644-2.517.468-.96.924-2.71.932-3.38-.92.21.199.49.299 1.097-.54.754-1.04 1.717-1.482 2.86-1.378 1.134.103 1.76.612 2.329 1.46z" fill="#594539"/><circle cx="56.736" cy="37.782" r="3.968" fill="#E1DFDD"/><radialGradient id="m" cx="56.818" cy="-424.02" r="2.053" gradientTransform="matrix(1 0 0 -1 0 -384)" gradientUnits="userSpaceOnUse"><stop stop-color="#724937" offset=".173"/><stop stop-color="#9B643D" offset=".703"/></radialGradient><path d="M58.028 38.298H55.63v3.16c0 .04-.03.068-.044.103.366.111.747.189 1.15.189.464 0 .902-.095 1.315-.241a.258.258 0 0 1-.022-.093l-.001-3.118z" fill="url(#m)"/><circle cx="54.563" cy="36.315" r=".691" fill="#594539"/><circle cx="56.095" cy="33.498" r=".788" fill="#594539"/><circle cx="55.068" cy="34.043" r=".788" fill="#594539"/><circle cx="54.52" cy="35.13" r=".788" fill="#594539"/><circle cx="58.98" cy="36.315" r=".691" fill="#594539"/><circle cx="57.422" cy="33.529" r=".788" fill="#594539"/><circle cx="58.535" cy="34.073" r=".788" fill="#594539"/><circle cx="58.966" cy="35.273" r=".788" fill="#594539"/><path d="M58.164 38.207h-2.777c-.579 0-1.048-.47-1.048-1.048v-1.281a2.437 2.437 0 1 1 4.874 0v1.28c0 .58-.47 1.049-1.049 1.049z" fill="#594539"/><path d="M53.94 37.792a.775.775 0 0 0 .77.78c.03 0 .405-.002.433-.005.388-.04.345-.367.347-.766.002-.396.055-.723-.327-.773-.032-.004-.411-.006-.444-.007a.775.775 0 0 0-.779.771z" fill="#9B643D"/><path d="M56.774 40.606a2.063 2.063 0 0 1-2.063-2.063V36.38a2.063 2.063 0 1 1 4.126 0v2.163c0 1.14-.923 2.063-2.063 2.063z" fill="#9B643D"/><ellipse transform="rotate(-89.685 57.644 37.292)" cx="57.644" cy="37.292" rx=".307" ry=".166" fill="#3A312E"/><radialGradient id="n" cx="158.29" cy="-544.7" r="1.745" gradientTransform="matrix(.9721 .0123 .0111 -.8762 -90.988 -441.14)" gradientUnits="userSpaceOnUse"><stop stop-color="#724937" offset=".173"/><stop stop-color="#9B643D" offset=".703"/></radialGradient><path d="M55.21 39.832l1.505-.025.04-1.138a.254.254 0 0 0-.115-.212l-.365-.24a.174.174 0 0 1-.05-.24l.317-.493a.733.733 0 0 0 .117-.394l.007-1.74-1.58.023.124 4.459z" fill="url(#n)"/><ellipse transform="rotate(-89.685 55.848 37.282)" cx="55.848" cy="37.283" rx=".307" ry=".166" fill="#3A312E"/><path d="M59.63 37.792a.775.775 0 0 1-.77.78c-.03 0-.405-.002-.433-.005-.388-.04-.345-.367-.347-.766-.002-.396-.055-.723.327-.773.032-.004.411-.006.444-.007a.775.775 0 0 1 .779.771z" fill="#9B643D"/><path d="M57.487 39.092a.577.577 0 0 1-.146.347.764.764 0 0 1-.336.21.786.786 0 0 1-.393-.007.549.549 0 0 1-.305-.228.083.083 0 0 1 .075-.127h.01c.105.008.195 0 .275-.008.08-.008.157-.015.227-.042.151-.028.27-.102.458-.215l.01-.007a.082.082 0 0 1 .125.077z" fill="#855035"/><path d="M58.16 33.894h-2.771l-.865 1.312.172 1.816.231-1.326a.906.906 0 0 1 .887-.723h1.92c.43 0 .8.302.888.722l.23 1.327.173-1.816-.865-1.312z" fill="#594539"/><circle cx="57.773" cy="34.647" r=".788" fill="#594539"/><circle cx="56.755" cy="51.521" r="3.968" fill="#8B8CC4"/><radialGradient id="o" cx="56.761" cy="-437.44" r="1.363" gradientTransform="matrix(1 0 0 -1 0 -384)" gradientUnits="userSpaceOnUse"><stop stop-color="#9B643D" offset="0"/><stop stop-color="#B98963" offset=".451"/><stop stop-color="#E0BB95" offset=".99"/></radialGradient><path d="M55.97 53.004v1.821c-.008.259-.038.41-.155.54.302.074.614.124.94.124.377 0 .734-.069 1.08-.167-.08-.106-.127-.245-.11-.467l.01-1.85-1.765-.001z" fill="url(#o)"/><path d="M59.607 50.357c-.023 1.697-1.316 3.051-2.89 3.025s-2.829-1.422-2.806-3.12.69-3.024 2.889-3.024c2.198 0 2.83 1.422 2.807 3.119z" fill="#FADCBD"/><path d="M55.602 52.493h-.937a.568.568 0 0 1-.568-.568v-.175c0-.313.254-.568.568-.568h.937v1.311zM57.938 52.493h.937a.568.568 0 0 0 .568-.568v-.175a.568.568 0 0 0-.568-.568h-.937v1.311z" fill="#E0BB95"/><path d="M58.746 53.879a.75.75 0 0 1 0-1.497.75.75 0 0 1 0 1.497zm0-1.196a.448.448 0 1 0 0 0zM54.753 53.879a.749.749 0 1 1 .002-1.498.749.749 0 0 1-.002 1.498zm0-1.196a.449.449 0 1 0 .001.897.449.449 0 0 0-.001-.897z" fill="#EE8F94"/><path d="M58.691 48.302c-.29-1.67-2.228-1.987-3.445-1.484-1.066.44-1.598 1.294-2.177.484 0 0-.835.738-.607 1.718s1.329 1.69 2.123 1.353c.528-.224 1.018-1.115 2.035-1.682.844-.47 2.071-.389 2.071-.389z" fill="#FADCBD"/><path d="M58.963 51.167c0 1.667-.995 3.019-2.222 3.019s-2.222-1.352-2.222-3.019.995-2.865 2.222-2.865 2.222 1.198 2.222 2.865z" fill="#E0BB95"/><ellipse transform="rotate(-.81 57.716 51.28)" cx="57.678" cy="51.323" rx=".192" ry=".323" fill="#3A312E"/><radialGradient id="p" cx="57.532" cy="-435.98" r="1.441" gradientTransform="matrix(1 0 0 -1 0 -384)" gradientUnits="userSpaceOnUse"><stop stop-color="#9B643D" offset="0"/><stop stop-color="#BA8A63" stop-opacity=".118" offset=".882"/><stop stop-color="#BF8F68" stop-opacity="0" offset="1"/></radialGradient><path d="M56.891 49.787l-.053.892c-.01.463-.253.867-.423 1.095a.271.271 0 0 0 .037.361c.166.154.376.39.384.612l-.027.532-1.334.115-.096-3.59 1.512-.017z" fill="url(#p)"/><path d="M56.454 52.993c.37.013.518-.033.853-.188l.006-.003a.073.073 0 0 1 .103.076c-.028.221-.224.38-.442.44-.223.042-.47-.03-.586-.212a.073.073 0 0 1 .066-.113z" fill="#BF8F68"/><ellipse transform="rotate(-.81 55.844 51.28)" cx="55.809" cy="51.322" rx=".192" ry=".323" fill="#3A312E"/><path d="M59.156 48.804s-1.16-.689-2.415-.689-2.422.688-2.422.688l-.288 2.362.492.059.398-1.741a.334.334 0 0 1 .322-.246h2.989c.15 0 .282.102.322.247l.409 1.74.48-.058-.287-2.362z" fill="#FADCBD"/><circle cx="56.797" cy="79.42" r="3.968" fill="#E1DFDD"/><radialGradient id="q" cx="-56.282" cy="-529.23" r="1.174" gradientTransform="matrix(.9549 0 0 -.8982 109.42 -395.97)" gradientUnits="userSpaceOnUse"><stop stop-color="#9B643D" offset="0"/><stop stop-color="#BF8F68" stop-opacity="0" offset="1"/></radialGradient><path d="M56.628 79.809c.012-.31-.551-.276-.254-.77.092-.154.168-.453.273-.76l.415.022-.06 1.534-.374-.026z" fill="url(#q)"/><path d="M56.797 83.389c.988 0 1.88-.374 2.574-.971a1.46 1.46 0 0 1-.332-1.9l.331-.537-2.595.118-2.596-.118.33.538c.382.62.238 1.414-.312 1.878.698.61 1.6.992 2.6.992z" fill="#8B8CC4"/><ellipse cx="56.777" cy="78.311" rx="3.015" ry="3.289" fill="#8B8CC7"/><radialGradient id="r" cx="-685.77" cy="-467.83" r="4.406" gradientTransform="matrix(.8475 0 0 -1 635.91 -384)" gradientUnits="userSpaceOnUse"><stop stop-color="#4B4C75" offset="0"/><stop stop-color="#6D6FAB" stop-opacity="0" offset="1"/></radialGradient><path d="M54.503 80.472c.61.85 1.115 1.994 2.312 1.677.636-.169.943-.68 1.976-.254 0 0-.26-.388-.125-1.233.09-.563.126-1.478.126-1.478s-5.435-.306-4.289 1.288z" fill="url(#r)"/><ellipse cx="56.777" cy="78.872" rx="2.127" ry="2.321" fill="#E0BB95"/><path d="M55.209 80.055l.008.007-.008-.007" fill="#6F50A1"/><radialGradient id="s" cx="-304.68" cy="647.83" r=".955" gradientTransform="matrix(-.9013 .0612 .0325 .8392 -238.89 -445.77)" gradientUnits="userSpaceOnUse"><stop stop-color="#9B643D" offset="0"/><stop stop-color="#BF8F68" stop-opacity="0" offset="1"/></radialGradient><path d="M56.803 79.788a.217.217 0 0 0-.117-.211c-.155-.082-.342-.22-.136-.539.095-.148.225-.237.185-.895l-1.197-.032-.04 2.03 1.295.015.01-.368z" fill="url(#s)"/><path d="M57.799 78.62c0 .169-.08.306-.178.306-.1 0-.18-.137-.18-.305-.001-.17.079-.306.178-.306.099 0 .18.136.18.305M56.133 78.619c.002.169-.077.307-.176.307-.1.001-.18-.135-.182-.304-.002-.169.077-.307.176-.307.099-.001.18.135.182.304" fill="#484643"/><path d="M57.372 80.041c-.053.205-.237.283-.387.34-.16.028-.357.029-.49-.113a.104.104 0 0 1 .068-.175l.035-.002c.107-.008.201-.006.303-.043.109-.01.19-.068.266-.108l.048-.024a.11.11 0 0 1 .157.125z" fill="#BF8F68"/><path d="M56.546 75.352s-.695.568 1.427 1.906c1.22.77.993 2.136.732 2.723 0 0 1.52-1.509-.134-3.219-.895-.927-2.025-1.41-2.025-1.41z" fill="#8B8CC4"/><path d="M110.75 15.294c0 .4-.06.79-.17 1.15-.5 1.62-2 2.8-3.79 2.8a3.96 3.96 0 0 1-3.78-2.8 3.95 3.95 0 0 1-.17-1.15 3.954 3.954 0 1 1 7.91 0z" fill="#8B8CC7"/><path d="M110 15.082a18.384 18.384 0 0 1-.121-1.191l-.029-.506a2.264 2.264 0 0 0-.13-.563 2.947 2.947 0 0 0-.34-.828 2.676 2.676 0 0 0-1.141-1.041 2.57 2.57 0 0 0-1.099-.25h-.863c-.375 0-.732.08-1.07.243-.304.138-.58.337-.827.599-.247.266-.437.57-.57.913-.143.356-.214.73-.214 1.12 0 .079.007.148.012.221l-.005.092c-.029.41-.07.806-.122 1.191-.036.256-.24.529-.593.816.029.187.07.37.123.546.5 1.62 2 2.8 3.78 2.8 1.79 0 3.29-1.18 3.79-2.8.046-.152.078-.31.106-.471-.413-.315-.647-.613-.687-.891z" fill="#DFBC97"/><path d="M106.79 19.244c.826 0 1.583-.26 2.216-.69a2.232 2.232 0 0 0-.652-.274 4.766 4.766 0 0 0-.305-.056c-.008 0-.014-.003-.021-.004l-.002.001c-.335-.05-.742-.084-1.23-.1-.658.019-1.182.076-1.572.17l-.01.005c-.237.038-.458.124-.672.233.639.446 1.41.715 2.248.715z" fill="#605D5A"/><path d="M104.75 14.498h-.149a.498.498 0 0 0-.364.153.506.506 0 0 0-.149.365c0 .144.051.267.154.369.099.1.22.149.364.149h.144v-1.036z" fill="#F9DDBF"/><radialGradient id="t" cx="106.69" cy="-400.25" r="1.19" gradientTransform="matrix(1 0 0 -1 0 -384)" gradientUnits="userSpaceOnUse"><stop stop-color="#9A6541" stop-opacity=".847" offset="0"/><stop stop-color="#F9DDBF" offset="1"/></radialGradient><path d="M106.75 18.484c-.509.014-.873-.076-1.091-.271.362-.093.44-.597.463-1.334l-.05-1.062 1.377-.015-.143 1.013c-.038.718-.016 1.305.386 1.398-.143.162-.457.252-.942.271z" fill="url(#t)"/><path d="M106.72 11.966c.56 0 1.037.183 1.433.55.4.37.6.815.6 1.333v1.312c0 .519-.2.96-.6 1.327-.396.37-.873.556-1.433.556h-.008c-.56 0-1.04-.185-1.44-.556-.396-.366-.593-.809-.593-1.327V13.85c0-.518.197-.963.593-1.334.4-.366.88-.549 1.44-.549h.008z" fill="#F9DDBF"/><radialGradient id="u" cx="-3522.6" cy="-1222.6" r=".865" gradientTransform="matrix(1 0 0 -.9918 3629.2 -1197.4)" gradientUnits="userSpaceOnUse"><stop stop-color="#9A6541" stop-opacity=".847" offset="0"/><stop stop-color="#F9DDBF" stop-opacity="0" offset="1"/></radialGradient><path d="M106.62 16.123h-1.362v-2.468h1.362v2.468z" fill="url(#u)"/><path d="M107.72 14.74c-.033.057-.076.086-.128.086-.048 0-.09-.029-.129-.086a.444.444 0 0 1-.05-.214.473.473 0 0 1 .057-.214c.038-.057.081-.086.129-.086.047 0 .09.029.128.086.034.062.05.133.05.214a.474.474 0 0 1-.057.214zM105.73 14.226c.048 0 .09.029.128.086a.51.51 0 0 1 .057.214c0 .08-.016.152-.05.214-.037.057-.08.085-.128.085-.047 0-.088-.028-.121-.085a.365.365 0 0 1-.057-.207.376.376 0 0 1 .043-.214c.033-.062.076-.093.128-.093z" fill="#33312D"/><path d="M106.62 15.517c0-.014-.036-.048-.107-.1a.748.748 0 0 1-.164-.157.331.331 0 0 1-.079-.207.276.276 0 0 1 .093-.192.825.825 0 0 0 .236-.385l.021-.186c.086.22.112.49.078.813-.019.162-.045.3-.078.414z" fill="#F9DDBF"/><path d="M108.69 11.819c.551 1.303.823 2.145.813 2.221a1.44 1.44 0 0 1-.677.164c-.39 0-.726-.13-1.006-.392a1.417 1.417 0 0 1-.457-.97h-1.27c-.018.38-.168.704-.448.97-.28.262-.616.392-1.006.392-.261 0-.502-.061-.72-.185-.005-.043.145-.397.449-1.063l.456-1.137h3.866z" fill="#DFBC97"/><radialGradient id="v" cx="2552.6" cy="374.15" r="1.997" gradientTransform="matrix(-1 0 0 1.0562 2660.5 -384.25)" gradientUnits="userSpaceOnUse"><stop stop-color="#5C2C07" stop-opacity=".847" offset="0"/><stop stop-color="#BE906B" stop-opacity="0" offset="1"/></radialGradient><path d="M106.74 12.636h-1.07v-1.933h1.07v1.933z" fill="url(#v)"/><path d="M106.73 12.636a.332.332 0 0 1 .107-.214.294.294 0 0 1 .428 0 .31.31 0 0 1 .1.214v.207h-.635v-.207z" fill="#BF8F68"/><path d="M106.1 12.636a.332.332 0 0 1 .107-.214.294.294 0 0 1 .428 0c.06.056.093.127.1.214v.207h-.635v-.207zM106.39 16.044c.168-.013.285-.016.394-.052.113-.02.186-.055.342-.148l.015-.008a.079.079 0 0 1 .118.06.412.412 0 0 1-.095.307.589.589 0 0 1-.289.176c-.215.038-.458-.018-.568-.219a.078.078 0 0 1 .062-.114l.021-.002z" fill="#BF8F68"/><path d="M108.71 14.51h.149c.14 0 .262.051.364.153.1.103.149.224.149.365a.503.503 0 0 1-.154.369c-.099.1-.22.149-.364.149h-.144V14.51z" fill="#F9DDBF"/><path d="M110.75 36.118c0 .4-.06.79-.17 1.15-.5 1.62-2 2.8-3.79 2.8a3.96 3.96 0 0 1-3.78-2.8 3.95 3.95 0 0 1-.17-1.15 3.954 3.954 0 1 1 7.91 0z" fill="#8B8CC7"/><path d="M110 35.907a18.384 18.384 0 0 1-.121-1.191l-.029-.506a2.264 2.264 0 0 0-.13-.564 2.947 2.947 0 0 0-.34-.827 2.676 2.676 0 0 0-1.141-1.041 2.57 2.57 0 0 0-1.099-.25h-.863c-.375 0-.732.08-1.07.243-.304.137-.58.337-.827.599-.247.266-.437.57-.57.913-.143.356-.214.73-.214 1.12 0 .079.007.148.012.221l-.005.092c-.029.41-.07.806-.122 1.191-.036.256-.24.529-.593.816.029.187.07.37.123.546.5 1.62 2 2.8 3.78 2.8 1.79 0 3.29-1.18 3.79-2.8.046-.152.078-.31.106-.471-.413-.315-.647-.613-.687-.891z" fill="#DFBC97"/><path d="M106.79 40.068c.826 0 1.583-.26 2.216-.69a2.232 2.232 0 0 0-.652-.274 4.766 4.766 0 0 0-.305-.056c-.008 0-.014-.004-.021-.004l-.002.001c-.335-.05-.742-.084-1.23-.1-.658.019-1.182.076-1.572.17l-.01.005c-.237.038-.458.124-.672.233.639.446 1.41.715 2.248.715z" fill="#605D5A"/><path d="M104.75 35.323h-.149a.498.498 0 0 0-.364.153.506.506 0 0 0-.149.365c0 .144.051.267.154.369.099.1.22.149.364.149h.144v-1.036z" fill="#F9DDBF"/><radialGradient id="w" cx="106.69" cy="-421.07" r="1.19" gradientTransform="matrix(1 0 0 -1 0 -384)" gradientUnits="userSpaceOnUse"><stop stop-color="#9A6541" stop-opacity=".847" offset="0"/><stop stop-color="#F9DDBF" offset="1"/></radialGradient><path d="M106.75 39.309c-.509.014-.873-.076-1.091-.271.362-.093.44-.597.463-1.334l-.05-1.062 1.377-.015-.143 1.013c-.038.718-.016 1.305.386 1.398-.143.162-.457.252-.942.271z" fill="url(#w)"/><path d="M106.72 32.79c.56 0 1.037.183 1.433.55.4.37.6.815.6 1.333v1.312c0 .518-.2.96-.6 1.327-.396.37-.873.556-1.433.556h-.008c-.56 0-1.04-.185-1.44-.556-.396-.366-.593-.809-.593-1.327v-1.312c0-.518.197-.963.593-1.334.4-.366.88-.549 1.44-.549h.008z" fill="#F9DDBF"/><radialGradient id="x" cx="-3522.6" cy="-1243.6" r=".865" gradientTransform="matrix(1 0 0 -.9918 3629.2 -1197.4)" gradientUnits="userSpaceOnUse"><stop stop-color="#9A6541" stop-opacity=".847" offset="0"/><stop stop-color="#F9DDBF" stop-opacity="0" offset="1"/></radialGradient><path d="M106.62 36.948h-1.362V34.48h1.362v2.468z" fill="url(#x)"/><path d="M107.72 35.565c-.033.057-.076.086-.128.086-.048 0-.09-.029-.129-.086a.444.444 0 0 1-.05-.214.473.473 0 0 1 .057-.214c.038-.057.081-.086.129-.086.047 0 .09.029.128.086.034.062.05.133.05.214a.474.474 0 0 1-.057.214zM105.73 35.051c.048 0 .09.029.128.086a.51.51 0 0 1 .057.214c0 .08-.016.152-.05.214-.037.057-.08.085-.128.085-.047 0-.088-.028-.121-.085a.365.365 0 0 1-.057-.207.376.376 0 0 1 .043-.214c.033-.062.076-.093.128-.093z" fill="#33312D"/><path d="M106.62 36.342c0-.014-.036-.048-.107-.1a.748.748 0 0 1-.164-.157.331.331 0 0 1-.079-.207.276.276 0 0 1 .093-.192.825.825 0 0 0 .236-.385l.021-.186c.086.22.112.49.078.813-.019.162-.045.3-.078.414z" fill="#F9DDBF"/><path d="M108.69 32.644c.551 1.303.823 2.145.813 2.221a1.44 1.44 0 0 1-.677.164c-.39 0-.726-.13-1.006-.392a1.417 1.417 0 0 1-.457-.97h-1.27c-.018.38-.168.704-.448.97-.28.262-.616.392-1.006.392-.261 0-.502-.061-.72-.185-.005-.043.145-.397.449-1.063l.456-1.137h3.866z" fill="#DFBC97"/><radialGradient id="y" cx="2552.6" cy="393.86" r="1.997" gradientTransform="matrix(-1 0 0 1.0562 2660.5 -384.25)" gradientUnits="userSpaceOnUse"><stop stop-color="#5C2C07" stop-opacity=".847" offset="0"/><stop stop-color="#BE906B" stop-opacity="0" offset="1"/></radialGradient><path d="M106.74 33.461h-1.07v-1.933h1.07v1.933z" fill="url(#y)"/><path d="M106.73 33.461a.332.332 0 0 1 .107-.214.294.294 0 0 1 .428 0 .31.31 0 0 1 .1.214v.207h-.635v-.207z" fill="#BF8F68"/><path d="M106.1 33.461a.332.332 0 0 1 .107-.214.294.294 0 0 1 .428 0c.06.056.093.127.1.214v.207h-.635v-.207zM106.39 36.868c.168-.013.285-.016.394-.052.113-.02.186-.055.342-.148l.015-.008a.079.079 0 0 1 .118.06.412.412 0 0 1-.095.307.589.589 0 0 1-.289.176c-.215.038-.458-.018-.568-.219a.078.078 0 0 1 .062-.114l.021-.002z" fill="#BF8F68"/><path d="M108.71 35.334h.149c.14 0 .262.051.364.153.1.103.149.224.149.365a.503.503 0 0 1-.154.369c-.099.1-.22.149-.364.149h-.144v-1.036z" fill="#F9DDBF"/><path d="M110.75 65.078c0 .4-.06.79-.17 1.15-.5 1.62-2 2.8-3.79 2.8a3.96 3.96 0 0 1-3.78-2.8 3.95 3.95 0 0 1-.17-1.15 3.954 3.954 0 1 1 7.91 0z" fill="#8B8CC7"/><path d="M110 64.866a18.384 18.384 0 0 1-.121-1.191l-.029-.506a2.264 2.264 0 0 0-.13-.564 2.947 2.947 0 0 0-.34-.827 2.676 2.676 0 0 0-1.141-1.041 2.57 2.57 0 0 0-1.099-.25h-.863c-.375 0-.732.08-1.07.243-.304.137-.58.337-.827.599-.247.266-.437.57-.57.913-.143.356-.214.73-.214 1.12 0 .079.007.148.012.221l-.005.092c-.029.41-.07.806-.122 1.191-.036.256-.24.529-.593.816.029.187.07.37.123.546.5 1.62 2 2.8 3.78 2.8 1.79 0 3.29-1.18 3.79-2.8.046-.152.078-.31.106-.471-.413-.315-.647-.613-.687-.891z" fill="#DFBC97"/><path d="M106.79 69.028c.826 0 1.583-.26 2.216-.69a2.232 2.232 0 0 0-.652-.274 4.766 4.766 0 0 0-.305-.056c-.008 0-.014-.003-.021-.004l-.002.001c-.335-.05-.742-.084-1.23-.1-.658.019-1.182.076-1.572.17l-.01.005c-.237.038-.458.124-.672.233.639.446 1.41.715 2.248.715z" fill="#605D5A"/><path d="M104.75 64.282h-.149a.498.498 0 0 0-.364.153.506.506 0 0 0-.149.365c0 .144.051.267.154.369.099.1.22.149.364.149h.144v-1.036z" fill="#F9DDBF"/><radialGradient id="z" cx="106.69" cy="-450.03" r="1.19" gradientTransform="matrix(1 0 0 -1 0 -384)" gradientUnits="userSpaceOnUse"><stop stop-color="#9A6541" stop-opacity=".847" offset="0"/><stop stop-color="#F9DDBF" offset="1"/></radialGradient><path d="M106.75 68.268c-.509.014-.873-.076-1.091-.271.362-.093.44-.597.463-1.334l-.05-1.062 1.377-.015-.143 1.013c-.038.718-.016 1.305.386 1.398-.143.162-.457.252-.942.271z" fill="url(#z)"/><path d="M106.72 61.75c.56 0 1.037.183 1.433.55.4.37.6.815.6 1.333v1.312c0 .519-.2.96-.6 1.327-.396.37-.873.556-1.433.556h-.008c-.56 0-1.04-.185-1.44-.556-.396-.366-.593-.809-.593-1.327v-1.312c0-.518.197-.963.593-1.334.4-.366.88-.549 1.44-.549h.008z" fill="#F9DDBF"/><radialGradient id="A" cx="-3522.6" cy="-1272.8" r=".865" gradientTransform="matrix(1 0 0 -.9918 3629.2 -1197.4)" gradientUnits="userSpaceOnUse"><stop stop-color="#9A6541" stop-opacity=".847" offset="0"/><stop stop-color="#F9DDBF" stop-opacity="0" offset="1"/></radialGradient><path d="M106.62 65.908h-1.362V63.44h1.362v2.468z" fill="url(#A)"/><path d="M107.72 64.524c-.033.057-.076.086-.128.086-.048 0-.09-.029-.129-.086a.444.444 0 0 1-.05-.214.473.473 0 0 1 .057-.214c.038-.057.081-.086.129-.086.047 0 .09.029.128.086.034.062.05.133.05.214a.474.474 0 0 1-.057.214zM105.73 64.01c.048 0 .09.029.128.086a.51.51 0 0 1 .057.214c0 .08-.016.152-.05.214-.037.057-.08.085-.128.085-.047 0-.088-.028-.121-.085a.365.365 0 0 1-.057-.207.376.376 0 0 1 .043-.214c.033-.062.076-.093.128-.093z" fill="#33312D"/><path d="M106.62 65.301c0-.014-.036-.048-.107-.1a.748.748 0 0 1-.164-.157.331.331 0 0 1-.079-.206.276.276 0 0 1 .093-.193.825.825 0 0 0 .236-.385l.021-.186c.086.22.112.49.078.813a2.57 2.57 0 0 1-.078.414z" fill="#F9DDBF"/><path d="M108.69 61.604c.551 1.303.823 2.145.813 2.221a1.44 1.44 0 0 1-.677.164c-.39 0-.726-.13-1.006-.392a1.417 1.417 0 0 1-.457-.97h-1.27c-.018.38-.168.704-.448.97-.28.262-.616.392-1.006.392-.261 0-.502-.061-.72-.185-.005-.043.145-.397.449-1.063l.456-1.137h3.866z" fill="#DFBC97"/><radialGradient id="B" cx="2552.6" cy="421.28" r="1.997" gradientTransform="matrix(-1 0 0 1.0562 2660.5 -384.25)" gradientUnits="userSpaceOnUse"><stop stop-color="#5C2C07" stop-opacity=".847" offset="0"/><stop stop-color="#BE906B" stop-opacity="0" offset="1"/></radialGradient><path d="M106.74 62.42h-1.07v-1.933h1.07v1.933z" fill="url(#B)"/><path d="M106.73 62.42a.332.332 0 0 1 .107-.214.294.294 0 0 1 .428 0 .31.31 0 0 1 .1.214v.207h-.635v-.207z" fill="#BF8F68"/><path d="M106.1 62.42a.332.332 0 0 1 .107-.214.294.294 0 0 1 .428 0 .31.31 0 0 1 .1.214v.207h-.635v-.207zM106.39 65.828c.168-.013.285-.016.394-.052.113-.02.186-.055.342-.148l.015-.008a.079.079 0 0 1 .118.06.412.412 0 0 1-.095.307.589.589 0 0 1-.289.176c-.215.038-.458-.018-.568-.219a.078.078 0 0 1 .062-.114l.021-.002z" fill="#BF8F68"/><path d="M108.71 64.294h.149c.14 0 .262.051.364.153.1.103.149.224.149.365a.503.503 0 0 1-.154.369c-.099.1-.22.149-.364.149h-.144v-1.036z" fill="#F9DDBF"/><path d="M60.724 23.994c0 .4-.06.79-.17 1.15-.5 1.62-2 2.8-3.79 2.8a3.96 3.96 0 0 1-3.78-2.8 3.95 3.95 0 0 1-.17-1.15 3.954 3.954 0 1 1 7.91 0z" fill="#8B8CC7"/><path d="M59.972 23.782a18.384 18.384 0 0 1-.121-1.191l-.029-.506a2.264 2.264 0 0 0-.13-.563 2.947 2.947 0 0 0-.34-.828 2.676 2.676 0 0 0-1.141-1.041 2.57 2.57 0 0 0-1.099-.25h-.863c-.375 0-.732.08-1.07.243-.304.138-.58.337-.827.599-.247.266-.437.57-.57.913-.143.356-.215.73-.215 1.12 0 .079.008.148.013.221l-.005.092c-.029.41-.07.806-.122 1.191-.036.256-.24.529-.593.816.029.187.07.37.123.546.5 1.62 2 2.8 3.78 2.8 1.79 0 3.29-1.18 3.79-2.8.046-.152.078-.31.106-.471-.413-.315-.647-.613-.687-.891z" fill="#DFBC97"/><path d="M56.764 27.944c.826 0 1.583-.26 2.216-.69a2.232 2.232 0 0 0-.652-.274 4.766 4.766 0 0 0-.305-.056c-.008 0-.014-.003-.021-.004l-.002.001c-.335-.05-.742-.084-1.23-.1-.658.019-1.182.076-1.572.17l-.01.005c-.237.038-.458.124-.672.233.639.446 1.41.715 2.248.715z" fill="#605D5A"/><path d="M54.723 23.198h-.149a.498.498 0 0 0-.364.153.506.506 0 0 0-.149.365c0 .144.051.267.154.369.099.1.22.149.364.149h.144v-1.036z" fill="#F9DDBF"/><radialGradient id="C" cx="56.669" cy="-408.95" r="1.19" gradientTransform="matrix(1 0 0 -1 0 -384)" gradientUnits="userSpaceOnUse"><stop stop-color="#9A6541" stop-opacity=".847" offset="0"/><stop stop-color="#F9DDBF" offset="1"/></radialGradient><path d="M56.727 27.184c-.509.014-.873-.076-1.091-.271.362-.093.44-.597.463-1.334l-.05-1.062 1.377-.015-.143 1.013c-.038.718-.017 1.305.385 1.398-.142.162-.456.252-.941.271z" fill="url(#C)"/><path d="M56.692 20.666c.56 0 1.037.183 1.433.55.4.37.6.815.6 1.333v1.312c0 .518-.2.96-.6 1.327-.396.37-.873.556-1.433.556h-.008c-.56 0-1.04-.185-1.44-.556-.395-.366-.593-.809-.593-1.327V22.55c0-.518.198-.963.593-1.334.4-.366.88-.549 1.44-.549h.008z" fill="#F9DDBF"/><radialGradient id="D" cx="-3572.6" cy="-1231.4" r=".865" gradientTransform="matrix(1 0 0 -.9918 3629.2 -1197.4)" gradientUnits="userSpaceOnUse"><stop stop-color="#9A6541" stop-opacity=".847" offset="0"/><stop stop-color="#F9DDBF" stop-opacity="0" offset="1"/></radialGradient><path d="M56.599 24.824h-1.362v-2.468h1.362v2.468z" fill="url(#D)"/><path d="M57.692 23.44c-.033.057-.076.086-.128.086-.048 0-.09-.029-.129-.086a.444.444 0 0 1-.05-.214.473.473 0 0 1 .057-.214c.038-.057.081-.086.129-.086.047 0 .09.029.128.086.033.062.05.133.05.214a.473.473 0 0 1-.057.214zM55.703 22.927c.048 0 .09.029.128.086a.51.51 0 0 1 .057.214c0 .08-.016.152-.05.214-.037.057-.08.085-.128.085s-.088-.028-.121-.085a.365.365 0 0 1-.057-.207.376.376 0 0 1 .043-.214c.033-.062.076-.093.128-.093z" fill="#33312D"/><path d="M56.599 24.218c0-.014-.036-.048-.107-.1a.748.748 0 0 1-.164-.157.331.331 0 0 1-.078-.206.276.276 0 0 1 .092-.193.825.825 0 0 0 .236-.385l.021-.186c.086.22.112.49.078.813-.019.162-.045.3-.078.414z" fill="#F9DDBF"/><path d="M58.667 20.52c.551 1.303.823 2.145.813 2.221a1.44 1.44 0 0 1-.677.164c-.39 0-.726-.13-1.006-.392a1.416 1.416 0 0 1-.456-.97h-1.27c-.019.38-.169.704-.45.97-.28.262-.615.392-1.005.392-.261 0-.502-.061-.72-.185-.005-.043.145-.397.45-1.063l.455-1.137h3.866z" fill="#DFBC97"/><radialGradient id="E" cx="2602.6" cy="382.38" r="1.997" gradientTransform="matrix(-1 0 0 1.0562 2660.5 -384.25)" gradientUnits="userSpaceOnUse"><stop stop-color="#5C2C07" stop-opacity=".847" offset="0"/><stop stop-color="#BE906B" stop-opacity="0" offset="1"/></radialGradient><path d="M56.713 21.336h-1.07v-1.933h1.07v1.933z" fill="url(#E)"/><path d="M56.706 21.336a.332.332 0 0 1 .107-.214.294.294 0 0 1 .428 0 .31.31 0 0 1 .1.214v.207h-.635v-.207zM56.071 21.336a.332.332 0 0 1 .107-.214.294.294 0 0 1 .428 0 .31.31 0 0 1 .1.214v.207h-.635v-.207zM56.364 24.744c.168-.013.285-.016.394-.052.113-.02.186-.055.342-.148l.015-.008a.079.079 0 0 1 .118.06.412.412 0 0 1-.095.307.589.589 0 0 1-.289.176c-.215.038-.458-.018-.568-.219a.078.078 0 0 1 .062-.114l.021-.002z" fill="#BF8F68"/><path d="M58.683 23.21h.149c.14 0 .262.051.364.153.1.103.149.224.149.365a.503.503 0 0 1-.154.369c-.099.1-.22.149-.364.149h-.144V23.21z" fill="#F9DDBF"/><path d="M241.79 32.944h-59.882a.72.72 0 0 1-.72-.72V13.107a.72.72 0 0 1 .72-.72h59.882a.72.72 0 0 1 .72.72v19.119a.72.72 0 0 1-.72.719z" fill="#6264A7"/><path d="M210.05 32.944h-28.52c-.187 0-.339-.322-.339-.72V13.107c0-.397.152-.72.339-.72h28.52v20.558z" fill="#6264A7"/><path fill="#8B8CC7" d="M200.75 19.646h23.277v2.445H200.75zM200.75 23.928h20.025v1.63H200.75zM227.93 20.053h3.894v1.63h-3.894z"/><path d="M241.17 7.52a.5.5 0 0 1-.487-.616l.752-3.152a.5.5 0 1 1 .973.233l-.752 3.151a.5.5 0 0 1-.486.384zM233.35 7.877a.5.5 0 0 1-.473-.338l-.998-2.91a.5.5 0 0 1 .947-.324l.997 2.91a.5.5 0 0 1-.473.662zM247.76 10.897a.5.5 0 0 1-.307-.896l2.732-2.116a.5.5 0 0 1 .613.791l-2.732 2.116a.499.499 0 0 1-.306.105zM249.12 17.86a.5.5 0 0 1-.056-.997l3.552-.402a.5.5 0 0 1 .112.994l-3.551.402a.518.518 0 0 1-.057.003z" fill="#E2E2F6"/><ellipse transform="rotate(-59.987 29.043 37.838)" cx="29.044" cy="37.838" rx="13.45" ry="13.939" fill="#594539"/><path d="M34.929 11.812c1.027 4.483 2.433 11.68 6.676 20.739-5.946 2.5-16.78 2.243-24.92-1.155 2.198-4.402 3.952-11.955 3.434-16.93.063-.937 14.552-3.777 14.81-2.654z" fill="#594539"/><path fill="#EE8F94" d="M19.957 28.205h3.584v12.134h-3.584z"/><path d="M7.95 39.739c.053.035.83.758 1.272 1.169.19.178.447.267.707.246l3.253-.262.854-.098v-1.24l-6.086.185z" fill="#BF8F68"/><path fill="#EE8F94" d="M22.084 42.463l-8.902-1.571v-1.638h8.902z"/><circle cx="24.359" cy="28.147" r="4.402" fill="#EE8F94"/><ellipse cx="28.008" cy="51.049" rx="9.783" ry="9.123" fill="#C3C3E1"/><path d="M18.786 48c-5.335 8.64.49 53.169.592 58.235.01.511-.27.98-.721 1.209l-2.753 1.219c-.315.219-.162.72.22.72h4.4c.48 0 .875-.384.896-.872l7.627-52.57s-7.17-12.945-10.26-7.94z" fill="#C3C3E1"/><path d="M18.786 48c-5.335 8.64.49 53.169.592 58.235.01.511-.27.98-.721 1.209l-2.753 1.219c-.315.219-.162.72.22.72h4.4c.48 0 .875-.384.896-.872l7.013-48.339s-2.49-2.483-4.91-5.629c-1.588-2.066-3.33-4.42-4.737-6.543z" fill="#C3C3E1"/><path d="M37.23 48H18.786l2.195-5.583c1.02-4.939-.53-11.312-.53-11.312l14.953 1.668s-1.629 4.026-.369 9.644L37.23 48z" fill="#EE8F94"/><ellipse transform="rotate(-7.313 27.646 13.81)" cx="27.647" cy="13.81" rx="7.545" ry="8.378" fill="#594539"/><ellipse transform="rotate(-6.459 22.898 17.717)" cx="22.899" cy="17.718" rx=".956" ry=".996" fill="#E3646A"/><path fill="#BF8F68" d="M26.766 17.496h3.352v5.853h-3.352z"/><radialGradient id="F" cx="1895.8" cy="-187.66" r="3.754" gradientTransform="matrix(-1 0 0 -1.1284 1923.9 -192.95)" gradientUnits="userSpaceOnUse"><stop stop-color="#9B643D" offset="0"/><stop stop-color="#BA8A63" stop-opacity=".118" offset=".882"/><stop stop-color="#BF8F68" stop-opacity="0" offset="1"/></radialGradient><path fill="url(#F)" d="M26.765 17.495h3.351v5.856h-3.351z"/><ellipse transform="rotate(-7.313 27.027 13.953)" cx="27.028" cy="13.954" rx="5.008" ry="6.064" fill="#BF8F68"/><ellipse transform="rotate(-6.459 28.62 13.662)" cx="28.622" cy="13.662" rx=".467" ry=".784" fill="#33312D"/><radialGradient id="G" cx="2013.3" cy="-373.36" r="2.431" gradientTransform="matrix(-.9795 .2016 -.2125 -1.0326 1918.8 -775.77)" gradientUnits="userSpaceOnUse"><stop stop-color="#9B643D" offset="0"/><stop stop-color="#BA8A63" stop-opacity=".118" offset=".882"/><stop stop-color="#BF8F68" stop-opacity="0" offset="1"/></radialGradient><path d="M26.31 10.744l.137 2.008c.042 1.031-.403 1.797-.756 2.238-.198.247-.238.79.07 1.073.168.154.855.453.916.926l.176 1.851-3.75.51-.87-8.208 4.077-.398z" fill="url(#G)"/><path d="M26.493 17.384c.187.01.328-.021.486-.059.154-.048.314-.09.468-.152.158-.052.31-.12.458-.179.149-.068.268-.12.39-.232l.064-.06a.141.141 0 0 1 .23.06c.101.31-.075.602-.242.785a1.512 1.512 0 0 1-.626.405c-.234.074-.483.121-.742.071-.251-.039-.539-.159-.675-.413a.155.155 0 0 1 .145-.228l.044.002z" fill="#9B643D"/><path d="M21.423 9.669s1.132.397 2.362-.53c1.192-.897 2.093.134 2.727.85 1.363 1.537 3.485 2.78 5.353 2.286 1.336-.352 1.116-4.836-3.065-5.76-4.372-.968-7.377 3.154-7.377 3.154z" fill="#594539"/><path d="M30.344 15.466l1.952-.25c.78-.1 1.332-.815 1.231-1.595l-.013-.104a1.425 1.425 0 0 0-1.594-1.232l-1.952.25.376 2.931z" fill="#BF8F68"/><path d="M37.23 48c4.541 10.838 2.087 34.064-4.244 58.183-.145.55.144 1.122.66 1.345l2.64.994c.433.262.25.938-.255.938h-4.694a.946.946 0 0 1-.938-.918l-2.52-55.397S34.343 48.788 37.23 48z" fill="#C3C3E1"/><ellipse transform="rotate(-6.459 32.602 16.043)" cx="32.606" cy="16.045" rx=".956" ry=".996" fill="#E3646A"/><circle cx="28.039" cy="30.652" r="7.664" fill="#EE8F94"/><radialGradient id="H" cx="36.62" cy="-423.95" r="11.392" gradientTransform="matrix(1 0 0 -1 0 -384)" gradientUnits="userSpaceOnUse"><stop stop-color="#E3646A" offset="0"/><stop stop-color="#E3646A" stop-opacity="0" offset="1"/></radialGradient><path d="M18.786 48H37.23l-2.195-5.583c-.764-3.407-.465-6.221-.112-7.915.528-1.132.78-2.445.78-3.85a7.664 7.664 0 0 0-15.328 0c0 .969.187 1.892.516 2.746.363 2.302.726 5.94.09 9.019L18.786 48z" fill="url(#H)"/><path d="M23.063 38.571s12.608 7.513 16.896 1.416c2.192-3.116.797-13.932-7.445-16.636-5.077 1.06-2.629 5.715-2.629 5.715s4.78 1.513 5.818 6.965c.708 3.716-12.548 1.02-12.548 1.02l-.092 1.52z" fill="#EE8F94"/><path d="M23.063 38.571l-2.722-.974-.483-.14a.617.617 0 0 0-.492.312l-.343.605-.803-.482.264-.889a.845.845 0 0 1 .514-.55l.746-.466-.848.184-.677.562-.624.021 1.234-1.173 1.082-.171a.72.72 0 0 1 .465.083l2.779 1.558-.092 1.52z" fill="#BF8F68"/><path d="M19.782 38.52H3.351a.519.519 0 0 1-.498-.376L.02 28.275a.518.518 0 0 1 .498-.662H16.95c.232 0 .435.154.499.376l2.832 9.87a.519.519 0 0 1-.498.662z" fill="#C8C6C4"/><path d="M23.068 39.987H3.665a.734.734 0 1 1 0-1.468h19.403a.734.734 0 0 1 0 1.468z" fill="#C8C6C4"/><path d="M30.116 21.092s.002 1.59 2.087 2.148l-2.318.612.231-2.76zM26.765 20.897v1.245c0 .557-.384 1.04-.927 1.166l-2.315.517 3.628-.07-.386-2.858z" fill="#BF8F68"/><path d="M23.847 23.751c.014.01.028.014.042.02a4.114 4.114 0 0 0 .454.166c.63.205 1.402.354 2.267.427h.004c.64.055 1.323.07 2.04.035a14.925 14.925 0 0 0 2.018-.222c.374-.07.73-.149 1.063-.239a8.185 8.185 0 0 0 1.22-.422c-.25-.097-.503-.187-.752-.277-.184-.066-.37-.129-.554-.19-.676-.292-1.053-.707-1.264-1.078l-.267-.041c-.024 0-.045-.004-.07-.007-.12-.014-.238-.028-.36-.038h-.003a11.131 11.131 0 0 0-2.486.065h-.003c-.094.01-.187.025-.28.042-.053.007-.101.017-.15.024v.125c0 .557-.384 1.042-.928 1.167l-1.991.443z" fill="#BF8F68"/><ellipse transform="rotate(-8.169 24.442 14.201)" cx="24.443" cy="14.202" rx=".467" ry=".784" fill="#33312D"/><path d="M185.55 98.471s.231 10.748 2.02 13.264h2.987c1.789-2.517 2.02-13.264 2.02-13.264h-7.027z" fill="#B3AFAB"/><path d="M192.63 99.92h-7.144a.724.724 0 1 1 0-1.449h7.144a.725.725 0 0 1 0 1.449z" fill="#B3AFAB"/><path d="M185.6 99.92c.134 3.011.584 9.868 1.968 11.815h2.987c1.384-1.947 1.834-8.804 1.967-11.815H185.6z" fill="#797673"/><linearGradient id="I" x1="182.77" x2="182.27" y1="-489.77" y2="-487.53" gradientTransform="matrix(1 0 0 -1 0 -384)" gradientUnits="userSpaceOnUse"><stop stop-color="#C8C6C4" offset="0"/><stop stop-color="#E1DFDD" offset="1"/></linearGradient><path d="M182.87 105.89a2.305 2.305 0 0 1-.844-3.149 2.305 2.305 0 0 1 .844 3.149z" fill="url(#I)"/><path d="M182.87 105.9a2.305 2.305 0 0 1-2.305-2.305 2.305 2.305 0 0 1 2.305 2.305z" fill="#C8C6C4"/><path d="M182.91 106.21l-.011.09-.012-.09c-1.643-1.285-3.971-.03-3.5 2.035.359 1.577 1.45 3.489 2.81 3.489.301 0 .515-.003.701-.006.186.003.401.006.702.006 1.36 0 2.451-1.912 2.81-3.489.471-2.065-1.857-3.32-3.5-2.035z" fill="#E3646A"/><circle cx="184.79" cy="107.18" r=".746" fill="#EE8F94"/><circle cx="190.9" cy="23.056" r="4.577" fill="#E2E2F6"/><path d="M195.36 24.051h-8.922c.455 2.048 2.276 3.582 4.46 3.582s4.006-1.534 4.462-3.582z" fill="#EE8F94"/><path d="M187.38 21.035l-.03 2.215a.814.814 0 0 1-.81.803l1.908 1.035a5.917 5.917 0 0 0 5.097-.049l1.705-.988a.838.838 0 0 1-.839-.833l-.017-2.466-7.014.283z" fill="#E0BB95"/><radialGradient id="J" cx="282.29" cy="1052.4" r="4.161" gradientTransform="matrix(1 0 0 .7538 -91.426 -771.49)" gradientUnits="userSpaceOnUse"><stop stop-color="#591C17" offset="0"/><stop stop-color="#7B422B" stop-opacity=".454" offset=".545"/><stop stop-color="#9B643D" stop-opacity="0" offset="1"/></radialGradient><path fill="url(#J)" d="M187.38 21.024l.01 4.031 7.01-.026v-4.288z"/><circle cx="187.57" cy="20.192" r=".724" fill="#E0BB95"/><path d="M190.56 23.531l.629-.001a3.223 3.223 0 0 0 3.207-3.221l-.001-.346a3.223 3.223 0 0 0-3.22-3.207l-.63.002a3.223 3.223 0 0 0-3.206 3.22v.346a3.223 3.223 0 0 0 3.221 3.207z" fill="#E0BB95"/><radialGradient id="K" cx="2638" cy="-623.66" r="1.71" gradientTransform="matrix(-.9825 0 0 -.7951 2782.8 -475.55)" gradientUnits="userSpaceOnUse"><stop stop-color="#9B643D" offset="0"/><stop stop-color="#E0BB95" stop-opacity="0" offset="1"/></radialGradient><path d="M190.93 18.117c-.04 1.378.413 1.69.601 1.979.165.254.05.553-.28.653-.057.017-.106.054-.151.082a.37.37 0 0 0-.177.316l-.067 2.253 3.122-.165-.165-4.877s-2.857-1.146-2.883-.241z" fill="url(#K)"/><circle cx="194.18" cy="20.192" r=".724" fill="#E0BB95"/><ellipse cx="192.13" cy="19.754" rx=".234" ry=".403" fill="#33312D"/><ellipse cx="189.6" cy="19.754" rx=".234" ry=".403" fill="#33312D"/><path d="M190.04 21.393l.05.006 1.42.17a.142.142 0 0 1 .117.188.899.899 0 0 1-1.746-.21.143.143 0 0 1 .159-.154z" fill="#231F20" opacity=".6"/><path d="M191.54 21.575a.148.148 0 0 0-.025-.005l-1.42-.17-.05-.007a.142.142 0 0 0-.158.147c.194.057.478.125.848.17.353.041.66.048.898.043a.142.142 0 0 0-.093-.178z" fill="#F8F8F8"/><linearGradient id="L" x1="148.35" x2="176.59" y1="279.96" y2="283.83" gradientTransform="rotate(-24.035 -253.824 12.717)" gradientUnits="userSpaceOnUse"><stop stop-color="#706F6E" offset="0"/><stop stop-color="#8C8B8A" offset=".123"/><stop stop-color="#AFAEAC" offset=".301"/><stop stop-color="#C8C7C4" offset=".469"/><stop stop-color="#D8D6D3" offset=".622"/><stop stop-color="#DDDBD8" offset=".745"/></linearGradient><linearGradient id="M" x1="125.32" x2="154.31" y1="260.56" y2="245.21" gradientTransform="rotate(-24.035 -253.824 12.717)" gradientUnits="userSpaceOnUse"><stop stop-color="#515285" offset="0"/><stop stop-color="#6465A3" offset="1"/></linearGradient><radialGradient id="N" cx="348.86" cy="69.606" r="8.003" gradientTransform="matrix(.1177 .993 -1.7119 .2029 281.51 -289.6)" gradientUnits="userSpaceOnUse"><stop stop-color="#6264A7" offset="0"/><stop stop-color="#8B8CC7" offset=".878"/></radialGradient></svg>